<svg width="470" height="160" viewBox="0 0 470 160" fill="none" xmlns="http://www.w3.org/2000/svg">
<path d="M202.013 142V130.618H204.129L207.689 139.935L211.285 130.618H213.358V142H212.091V133.753C212.091 133.362 212.093 132.984 212.098 132.618C212.108 132.247 212.115 131.915 212.12 131.622L208.531 140.901H206.832L203.25 131.622L203.265 132.464C203.275 132.933 203.28 133.362 203.28 133.753V142H202.013ZM220.586 130.618H222.212L226.701 142H225.251L224.072 138.843H218.718L217.554 142H216.096L220.586 130.618ZM223.647 137.796L222.483 134.734C222.317 134.29 222.178 133.904 222.065 133.577L221.743 132.596C221.64 132.269 221.526 131.922 221.399 131.556C221.286 131.878 221.179 132.203 221.076 132.53C221.076 132.53 220.964 132.876 220.74 133.57C220.74 133.57 220.21 134.979 219.15 137.796H223.647ZM229.85 142V130.618H233.38C236.178 130.618 237.867 131.729 238.448 133.951C238.629 134.654 238.719 135.442 238.719 136.316V136.617C238.719 138.331 238.253 139.654 237.32 140.586C236.378 141.529 235.045 142 233.321 142H229.85ZM231.117 140.85H233.321C234.645 140.85 235.663 140.462 236.376 139.686C237.064 138.938 237.408 137.916 237.408 136.617V136.316C237.379 134.759 237.057 133.621 236.442 132.903C235.797 132.151 234.767 131.775 233.351 131.775H231.117V140.85ZM245.954 137.789C245.803 137.808 245.576 137.818 245.273 137.818H243.611V142H242.344V130.618H245.442C247.698 130.589 249.045 131.302 249.485 132.757C249.621 133.211 249.687 133.714 249.683 134.266C249.643 135.145 249.431 135.86 249.045 136.412C248.66 136.963 248.071 137.356 247.28 137.591L247.588 138.089C247.739 138.323 247.917 138.587 248.122 138.88L250.019 141.355L248.716 142.146C248.467 141.697 248.198 141.246 247.91 140.792L246.504 138.602C246.333 138.333 246.15 138.062 245.954 137.789ZM245.273 136.705C246.797 136.719 247.754 136.277 248.144 135.379C248.281 135.066 248.354 134.7 248.364 134.28C248.379 133.855 248.335 133.487 248.232 133.174C248.135 132.862 247.969 132.601 247.734 132.391C247.261 131.951 246.496 131.736 245.442 131.746H243.611V136.705H245.273ZM253.182 130.618H254.449V142H253.182V130.618ZM258.513 142V130.618H262.043C264.841 130.618 266.531 131.729 267.112 133.951C267.292 134.654 267.383 135.442 267.383 136.316V136.617C267.383 138.331 266.917 139.654 265.984 140.586C265.042 141.529 263.708 142 261.985 142H258.513ZM259.78 140.85H261.985C263.308 140.85 264.326 140.462 265.039 139.686C265.728 138.938 266.072 137.916 266.072 136.617V136.316C266.042 134.759 265.72 133.621 265.105 132.903C264.46 132.151 263.43 131.775 262.014 131.775H259.78V140.85Z" fill="#BC6737"/>
<path d="M66.4472 80.915C63.5192 80.915 60.6929 80.427 57.9682 79.451C55.2842 78.475 52.9052 77.0923 50.8312 75.303C48.7572 73.5137 47.1102 71.3583 45.8902 68.837C44.7109 66.3157 44.1212 63.5097 44.1212 60.419C44.1212 57.5317 44.7312 54.8273 45.9512 52.306C47.1712 49.744 48.8589 47.5277 51.0142 45.657C53.2102 43.7457 55.7519 42.2613 58.6392 41.204C61.5266 40.106 64.6579 39.557 68.0332 39.557C69.5379 39.557 70.8799 39.6383 72.0592 39.801C73.2386 39.923 74.3772 40.106 75.4752 40.35C76.5732 40.594 77.7526 40.9193 79.0132 41.326C79.5419 41.4887 79.9282 41.7123 80.1722 41.997C80.4569 42.2817 80.6196 42.7087 80.6602 43.278C80.7822 44.3353 80.8839 45.4333 80.9652 46.572C81.0872 47.7107 81.1686 48.9713 81.2092 50.354C81.2092 50.72 81.0466 50.9843 80.7212 51.147C80.4366 51.3097 80.1112 51.3503 79.7452 51.269C79.3792 51.147 79.1352 50.8623 79.0132 50.415C78.6472 49.073 78.2202 47.8733 77.7322 46.816C77.2442 45.7587 76.5326 44.8843 75.5972 44.193C74.6619 43.461 73.4622 42.8917 71.9982 42.485C70.5749 42.0783 68.9686 41.875 67.1792 41.875C64.9019 41.875 62.8076 42.3427 60.8962 43.278C58.9849 44.2133 57.3582 45.4943 56.0162 47.121C54.6742 48.707 53.6169 50.5167 52.8442 52.55C52.1122 54.5833 51.7462 56.698 51.7462 58.894C51.7462 61.456 52.0919 63.9163 52.7832 66.275C53.5152 68.6337 54.5522 70.728 55.8942 72.558C57.2769 74.388 58.9442 75.852 60.8962 76.95C62.8482 78.0073 65.0442 78.536 67.4842 78.536C70.4122 78.536 72.8319 77.8853 74.7432 76.584C76.6546 75.242 78.2609 73.3307 79.5622 70.85C79.8469 70.2807 80.2739 69.996 80.8432 69.996C81.4126 69.996 81.6972 70.3213 81.6972 70.972C81.6972 71.3787 81.6159 71.948 81.4532 72.68C81.3312 73.3713 81.1482 74.144 80.9042 74.998C80.6602 75.8113 80.4162 76.5637 80.1722 77.255C79.9282 77.7837 79.7046 78.1497 79.5012 78.353C79.2979 78.5563 78.9116 78.7597 78.3422 78.963C76.7969 79.6137 74.9669 80.1017 72.8522 80.427C70.7782 80.7523 68.6432 80.915 66.4472 80.915ZM112.195 80.854C109.47 80.854 106.868 80.3863 104.387 79.451C101.947 78.475 99.7712 77.1127 97.8599 75.364C95.9485 73.5747 94.4235 71.46 93.2849 69.02C92.1869 66.5393 91.6379 63.7943 91.6379 60.785C91.6379 58.0197 92.0852 55.3763 92.9799 52.855C93.9152 50.293 95.2572 48.0157 97.0059 46.023C98.7952 44.0303 101.012 42.4443 103.655 41.265C106.298 40.0857 109.328 39.496 112.744 39.496C115.509 39.496 118.112 39.984 120.552 40.96C123.033 41.8953 125.229 43.2577 127.14 45.047C129.051 46.7957 130.556 48.9103 131.654 51.391C132.793 53.831 133.362 56.5557 133.362 59.565C133.362 62.2897 132.894 64.933 131.959 67.495C131.064 70.057 129.722 72.3343 127.933 74.327C126.184 76.3197 123.988 77.9057 121.345 79.085C118.702 80.2643 115.652 80.854 112.195 80.854ZM113.171 78.292C116.018 78.292 118.376 77.6413 120.247 76.34C122.158 74.998 123.582 73.1477 124.517 70.789C125.493 68.4303 125.981 65.7057 125.981 62.615C125.981 59.8903 125.676 57.308 125.066 54.868C124.497 52.428 123.622 50.2523 122.443 48.341C121.264 46.389 119.779 44.8843 117.99 43.827C116.201 42.729 114.106 42.18 111.707 42.18C108.942 42.18 106.603 42.8307 104.692 44.132C102.821 45.4333 101.398 47.243 100.422 49.561C99.4865 51.879 99.0189 54.5833 99.0189 57.674C99.0189 60.4393 99.3035 63.042 99.8729 65.482C100.442 67.922 101.317 70.118 102.496 72.07C103.675 73.9813 105.139 75.5063 106.888 76.645C108.677 77.743 110.772 78.292 113.171 78.292ZM180.986 81.098C180.579 81.098 179.806 80.7727 178.668 80.122C177.57 79.512 176.492 78.4953 175.435 77.072C174.987 76.584 174.296 75.8113 173.361 74.754C172.466 73.656 171.388 72.3953 170.128 70.972C168.908 69.5487 167.586 68.0237 166.163 66.397C164.78 64.7703 163.377 63.164 161.954 61.578C160.571 59.9513 159.249 58.4263 157.989 57.003C156.769 55.5797 155.671 54.319 154.695 53.221C153.759 52.123 153.048 51.33 152.56 50.842C152.356 50.5573 152.153 50.3337 151.95 50.171C151.787 50.0083 151.624 49.927 151.462 49.927C151.299 49.927 151.177 50.0897 151.096 50.415C151.014 50.6997 150.974 50.964 150.974 51.208C150.933 53.16 150.913 55.417 150.913 57.979C150.913 60.541 150.892 63.1843 150.852 65.909C150.852 68.593 150.852 71.1143 150.852 73.473C150.852 74.6523 151.177 75.6893 151.828 76.584C152.478 77.438 153.576 78.0277 155.122 78.353C155.691 78.475 156.138 78.6173 156.464 78.78C156.83 78.9427 157.013 79.1867 157.013 79.512C157.013 79.756 156.85 79.939 156.525 80.061C156.199 80.183 155.793 80.244 155.305 80.244C154.207 80.244 153.353 80.2033 152.743 80.122C152.173 80.0813 151.645 80.0407 151.157 80C150.669 80 150.018 80 149.205 80C148.432 80 147.761 80.0203 147.192 80.061C146.663 80.1017 146.134 80.1423 145.606 80.183C145.077 80.2237 144.426 80.244 143.654 80.244C143.206 80.244 142.8 80.183 142.434 80.061C142.108 79.9797 141.946 79.7967 141.946 79.512C141.946 79.2273 142.108 79.0037 142.434 78.841C142.759 78.6377 143.227 78.4547 143.837 78.292C144.935 77.9667 145.748 77.377 146.277 76.523C146.805 75.6283 147.11 74.571 147.192 73.351C147.354 71.8057 147.517 69.7723 147.68 67.251C147.883 64.7297 148.046 61.9033 148.168 58.772C148.29 55.6407 148.351 52.4077 148.351 49.073C148.351 46.9177 147.802 45.3723 146.704 44.437C145.606 43.5017 144.203 42.7493 142.495 42.18C142.291 42.0987 141.925 41.936 141.397 41.692C140.909 41.448 140.665 41.143 140.665 40.777C140.665 40.411 140.848 40.167 141.214 40.045C141.58 39.923 141.885 39.862 142.129 39.862C143.186 39.9027 144.101 39.9433 144.874 39.984C145.687 39.984 146.46 40.0043 147.192 40.045C147.924 40.0857 148.696 40.1263 149.51 40.167C150.323 40.167 151.279 40.167 152.377 40.167C152.743 40.167 153.027 40.2687 153.231 40.472C153.434 40.6347 153.617 40.838 153.78 41.082C154.227 41.6107 154.918 42.4443 155.854 43.583C156.83 44.7217 157.948 46.0637 159.209 47.609C160.51 49.1543 161.893 50.8013 163.357 52.55C164.821 54.258 166.285 55.9863 167.749 57.735C169.213 59.4837 170.595 61.1307 171.897 62.676C173.198 64.2213 174.316 65.5633 175.252 66.702C176.228 67.8 176.919 68.593 177.326 69.081C177.488 69.2437 177.692 69.4673 177.936 69.752C178.22 70.0367 178.464 70.179 178.668 70.179C179.034 70.179 179.237 69.7927 179.278 69.02C179.278 68.2067 179.278 66.9867 179.278 65.36C179.278 63.7333 179.278 61.8423 179.278 59.687C179.318 57.5317 179.339 55.2747 179.339 52.916C179.339 50.5167 179.318 48.1377 179.278 45.779C179.237 44.8843 178.81 44.132 177.997 43.522C177.183 42.8713 176.309 42.4443 175.374 42.241C174.804 42.1597 174.276 42.0173 173.788 41.814C173.3 41.6107 173.056 41.3463 173.056 41.021C173.056 40.777 173.3 40.594 173.788 40.472C174.276 40.35 174.743 40.289 175.191 40.289C175.801 40.289 176.329 40.289 176.777 40.289C177.265 40.289 177.732 40.289 178.18 40.289C178.627 40.289 179.074 40.289 179.522 40.289C180.457 40.289 181.209 40.289 181.779 40.289C182.348 40.2483 182.958 40.2077 183.609 40.167C184.3 40.1263 185.235 40.106 186.415 40.106C186.903 40.106 187.289 40.167 187.574 40.289C187.899 40.411 188.062 40.6143 188.062 40.899C188.062 41.4683 187.431 41.875 186.171 42.119C184.707 42.4037 183.71 42.79 183.182 43.278C182.653 43.7253 182.368 44.4777 182.328 45.535C182.328 46.1857 182.307 47.2633 182.267 48.768C182.226 50.232 182.185 51.9603 182.145 53.953C182.145 55.9457 182.124 58.04 182.084 60.236C182.043 62.432 182.023 64.5873 182.023 66.702C182.023 68.8167 182.023 70.728 182.023 72.436C182.023 73.412 182.063 74.3677 182.145 75.303C182.226 76.1977 182.287 76.9907 182.328 77.682C182.409 78.3327 182.45 78.8207 182.45 79.146C182.45 79.9187 182.307 80.427 182.023 80.671C181.738 80.9557 181.392 81.098 180.986 81.098ZM205.682 80.915C203.974 80.915 202.367 80.671 200.863 80.183C199.358 79.7357 197.975 79.0443 196.715 78.109C196.552 77.9463 196.369 77.7633 196.166 77.56C196.003 77.316 195.881 77.072 195.8 76.828C195.515 75.8927 195.312 74.7337 195.19 73.351C195.108 71.9277 195.047 70.667 195.007 69.569C195.007 69.2843 195.129 69.081 195.373 68.959C195.617 68.7963 195.901 68.715 196.227 68.715C196.511 68.715 196.735 68.776 196.898 68.898C197.101 68.9793 197.243 69.1623 197.325 69.447C198.179 72.5377 199.439 74.8557 201.107 76.401C202.774 77.9057 204.584 78.658 206.536 78.658C207.918 78.658 209.098 78.353 210.074 77.743C211.09 77.133 211.883 76.3197 212.453 75.303C213.022 74.2457 213.307 73.0663 213.307 71.765C213.307 70.2197 213.042 68.959 212.514 67.983C211.985 67.007 211.212 66.1327 210.196 65.36C209.179 64.5873 207.918 63.7537 206.414 62.859C204.787 61.883 203.181 60.8663 201.595 59.809C200.049 58.7517 198.768 57.5113 197.752 56.088C196.735 54.6647 196.227 52.916 196.227 50.842C196.227 48.646 196.735 46.7143 197.752 45.047C198.809 43.339 200.334 41.997 202.327 41.021C204.319 40.0043 206.719 39.496 209.525 39.496C210.989 39.496 212.31 39.6587 213.49 39.984C214.71 40.2687 215.686 40.5737 216.418 40.899C216.784 41.021 217.068 41.2243 217.272 41.509C217.516 41.7937 217.699 42.1393 217.821 42.546C218.024 43.4 218.248 44.3963 218.492 45.535C218.736 46.6737 218.858 47.8327 218.858 49.012C218.858 49.4593 218.532 49.683 217.882 49.683C217.516 49.683 217.17 49.6017 216.845 49.439C216.519 49.2763 216.316 49.073 216.235 48.829C215.421 46.5517 214.405 44.8233 213.185 43.644C212.005 42.4647 210.501 41.875 208.671 41.875C207.451 41.875 206.332 42.0987 205.316 42.546C204.34 42.9527 203.547 43.644 202.937 44.62C202.367 45.5553 202.083 46.7957 202.083 48.341C202.083 49.439 202.449 50.476 203.181 51.452C203.953 52.3873 204.97 53.3023 206.231 54.197C207.532 55.051 208.976 55.9457 210.562 56.881C212.229 57.8977 213.734 58.955 215.076 60.053C216.418 61.151 217.475 62.4117 218.248 63.835C219.02 65.2177 219.407 66.885 219.407 68.837C219.407 71.399 218.837 73.595 217.699 75.425C216.56 77.2143 214.954 78.5767 212.88 79.512C210.846 80.4473 208.447 80.915 205.682 80.915ZM250.92 80.915C247.992 80.915 245.165 80.427 242.441 79.451C239.757 78.475 237.378 77.0923 235.304 75.303C233.23 73.5137 231.583 71.3583 230.363 68.837C229.183 66.3157 228.594 63.5097 228.594 60.419C228.594 57.5317 229.204 54.8273 230.424 52.306C231.644 49.744 233.331 47.5277 235.487 45.657C237.683 43.7457 240.224 42.2613 243.112 41.204C245.999 40.106 249.13 39.557 252.506 39.557C254.01 39.557 255.352 39.6383 256.532 39.801C257.711 39.923 258.85 40.106 259.948 40.35C261.046 40.594 262.225 40.9193 263.486 41.326C264.014 41.4887 264.401 41.7123 264.645 41.997C264.929 42.2817 265.092 42.7087 265.133 43.278C265.255 44.3353 265.356 45.4333 265.438 46.572C265.56 47.7107 265.641 48.9713 265.682 50.354C265.682 50.72 265.519 50.9843 265.194 51.147C264.909 51.3097 264.584 51.3503 264.218 51.269C263.852 51.147 263.608 50.8623 263.486 50.415C263.12 49.073 262.693 47.8733 262.205 46.816C261.717 45.7587 261.005 44.8843 260.07 44.193C259.134 43.461 257.935 42.8917 256.471 42.485C255.047 42.0783 253.441 41.875 251.652 41.875C249.374 41.875 247.28 42.3427 245.369 43.278C243.457 44.2133 241.831 45.4943 240.489 47.121C239.147 48.707 238.089 50.5167 237.317 52.55C236.585 54.5833 236.219 56.698 236.219 58.894C236.219 61.456 236.564 63.9163 237.256 66.275C237.988 68.6337 239.025 70.728 240.367 72.558C241.749 74.388 243.417 75.852 245.369 76.95C247.321 78.0073 249.517 78.536 251.957 78.536C254.885 78.536 257.304 77.8853 259.216 76.584C261.127 75.242 262.733 73.3307 264.035 70.85C264.319 70.2807 264.746 69.996 265.316 69.996C265.885 69.996 266.17 70.3213 266.17 70.972C266.17 71.3787 266.088 71.948 265.926 72.68C265.804 73.3713 265.621 74.144 265.377 74.998C265.133 75.8113 264.889 76.5637 264.645 77.255C264.401 77.7837 264.177 78.1497 263.974 78.353C263.77 78.5563 263.384 78.7597 262.815 78.963C261.269 79.6137 259.439 80.1017 257.325 80.427C255.251 80.7523 253.116 80.915 250.92 80.915ZM276.415 80.244C275.968 80.244 275.582 80.183 275.256 80.061C274.972 79.9797 274.829 79.7967 274.829 79.512C274.829 78.9833 275.419 78.597 276.598 78.353C278.144 78.0683 279.282 77.621 280.014 77.011C280.746 76.401 281.112 75.4047 281.112 74.022V46.45C281.112 45.0673 280.828 44.0913 280.258 43.522C279.689 42.912 278.632 42.4443 277.086 42.119C275.907 41.875 275.317 41.4683 275.317 40.899C275.317 40.6143 275.46 40.411 275.744 40.289C276.029 40.167 276.395 40.106 276.842 40.106C277.9 40.106 278.835 40.1263 279.648 40.167C280.502 40.2077 281.316 40.2483 282.088 40.289C282.861 40.3297 283.695 40.35 284.589 40.35C285.443 40.35 286.236 40.35 286.968 40.35C287.741 40.3093 288.514 40.2687 289.286 40.228C290.1 40.1873 291.015 40.167 292.031 40.167C292.519 40.167 292.906 40.228 293.19 40.35C293.475 40.4313 293.617 40.6143 293.617 40.899C293.617 41.2243 293.455 41.4887 293.129 41.692C292.845 41.8547 292.418 41.997 291.848 42.119C290.262 42.485 289.144 42.9527 288.493 43.522C287.883 44.0913 287.578 45.0673 287.578 46.45V74.022C287.578 75.364 287.965 76.34 288.737 76.95C289.51 77.56 290.649 78.0277 292.153 78.353C292.763 78.475 293.211 78.6173 293.495 78.78C293.78 78.9427 293.922 79.1867 293.922 79.512C293.922 79.756 293.78 79.939 293.495 80.061C293.251 80.183 292.885 80.244 292.397 80.244C291.381 80.244 290.445 80.2033 289.591 80.122C288.737 80.0813 287.904 80.0407 287.09 80C286.318 79.9593 285.484 79.939 284.589 79.939C283.613 79.939 282.698 79.9593 281.844 80C281.031 80.0407 280.177 80.0813 279.282 80.122C278.388 80.2033 277.432 80.244 276.415 80.244ZM322.144 80.854C319.42 80.854 316.817 80.3863 314.336 79.451C311.896 78.475 309.721 77.1127 307.809 75.364C305.898 73.5747 304.373 71.46 303.234 69.02C302.136 66.5393 301.587 63.7943 301.587 60.785C301.587 58.0197 302.035 55.3763 302.929 52.855C303.865 50.293 305.207 48.0157 306.955 46.023C308.745 44.0303 310.961 42.4443 313.604 41.265C316.248 40.0857 319.277 39.496 322.693 39.496C325.459 39.496 328.061 39.984 330.501 40.96C332.982 41.8953 335.178 43.2577 337.089 45.047C339.001 46.7957 340.505 48.9103 341.603 51.391C342.742 53.831 343.311 56.5557 343.311 59.565C343.311 62.2897 342.844 64.933 341.908 67.495C341.014 70.057 339.672 72.3343 337.882 74.327C336.134 76.3197 333.938 77.9057 331.294 79.085C328.651 80.2643 325.601 80.854 322.144 80.854ZM323.12 78.292C325.967 78.292 328.326 77.6413 330.196 76.34C332.108 74.998 333.531 73.1477 334.466 70.789C335.442 68.4303 335.93 65.7057 335.93 62.615C335.93 59.8903 335.625 57.308 335.015 54.868C334.446 52.428 333.572 50.2523 332.392 48.341C331.213 46.389 329.729 44.8843 327.939 43.827C326.15 42.729 324.056 42.18 321.656 42.18C318.891 42.18 316.553 42.8307 314.641 44.132C312.771 45.4333 311.347 47.243 310.371 49.561C309.436 51.879 308.968 54.5833 308.968 57.674C308.968 60.4393 309.253 63.042 309.822 65.482C310.392 67.922 311.266 70.118 312.445 72.07C313.625 73.9813 315.089 75.5063 316.837 76.645C318.627 77.743 320.721 78.292 323.12 78.292ZM372.635 80.854C368.975 80.854 365.905 80.2033 363.424 78.902C360.944 77.6007 359.073 75.7707 357.812 73.412C356.552 71.0127 355.921 68.227 355.921 65.055V46.816C355.921 45.474 355.637 44.4167 355.067 43.644C354.539 42.8713 353.868 42.4037 353.054 42.241C351.753 41.875 351.102 41.4277 351.102 40.899C351.102 40.6143 351.265 40.411 351.59 40.289C351.916 40.167 352.322 40.106 352.81 40.106C353.868 40.106 354.945 40.1467 356.043 40.228C357.141 40.3093 358.26 40.35 359.398 40.35C360.415 40.35 361.472 40.3297 362.57 40.289C363.668 40.2077 364.644 40.167 365.498 40.167C366.027 40.167 366.434 40.228 366.718 40.35C367.044 40.472 367.206 40.6753 367.206 40.96C367.206 41.2853 366.983 41.5497 366.535 41.753C366.129 41.9157 365.58 42.119 364.888 42.363C364.36 42.5663 363.811 43.0543 363.241 43.827C362.713 44.559 362.448 45.5757 362.448 46.877V63.591C362.448 66.6817 362.957 69.2233 363.973 71.216C364.99 73.2087 366.393 74.6727 368.182 75.608C369.972 76.5433 371.985 77.011 374.221 77.011C378.247 77.011 381.196 75.6893 383.066 73.046C384.978 70.362 385.933 66.6817 385.933 62.005C385.933 61.0697 385.933 59.8903 385.933 58.467C385.933 57.0437 385.913 55.539 385.872 53.953C385.872 52.367 385.852 50.8623 385.811 49.439C385.771 48.097 385.649 46.9583 385.445 46.023C385.283 45.047 384.998 44.2337 384.591 43.583C384.185 42.9323 383.656 42.5053 383.005 42.302C382.599 42.1393 382.131 41.9563 381.602 41.753C381.114 41.5497 380.87 41.2853 380.87 40.96C380.87 40.716 381.033 40.533 381.358 40.411C381.684 40.289 382.111 40.228 382.639 40.228C383.778 40.228 384.673 40.2483 385.323 40.289C385.974 40.3297 386.767 40.35 387.702 40.35C388.394 40.35 389.004 40.3297 389.532 40.289C390.102 40.2483 390.651 40.2077 391.179 40.167C391.708 40.1263 392.257 40.106 392.826 40.106C393.314 40.106 393.721 40.167 394.046 40.289C394.372 40.411 394.534 40.6143 394.534 40.899C394.534 41.4277 393.904 41.8343 392.643 42.119C391.464 42.4037 390.63 42.9527 390.142 43.766C389.695 44.5793 389.431 45.657 389.349 46.999C389.146 50.3337 389.024 53.404 388.983 56.21C388.943 58.9753 388.882 61.7407 388.8 64.506C388.76 67.678 388.007 70.5043 386.543 72.985C385.12 75.4657 383.209 77.3973 380.809 78.78C378.41 80.1627 375.685 80.854 372.635 80.854ZM412.117 80.915C410.409 80.915 408.802 80.671 407.298 80.183C405.793 79.7357 404.41 79.0443 403.15 78.109C402.987 77.9463 402.804 77.7633 402.601 77.56C402.438 77.316 402.316 77.072 402.235 76.828C401.95 75.8927 401.747 74.7337 401.625 73.351C401.543 71.9277 401.482 70.667 401.442 69.569C401.442 69.2843 401.564 69.081 401.808 68.959C402.052 68.7963 402.336 68.715 402.662 68.715C402.946 68.715 403.17 68.776 403.333 68.898C403.536 68.9793 403.678 69.1623 403.76 69.447C404.614 72.5377 405.874 74.8557 407.542 76.401C409.209 77.9057 411.019 78.658 412.971 78.658C414.353 78.658 415.533 78.353 416.509 77.743C417.525 77.133 418.318 76.3197 418.888 75.303C419.457 74.2457 419.742 73.0663 419.742 71.765C419.742 70.2197 419.477 68.959 418.949 67.983C418.42 67.007 417.647 66.1327 416.631 65.36C415.614 64.5873 414.353 63.7537 412.849 62.859C411.222 61.883 409.616 60.8663 408.03 59.809C406.484 58.7517 405.203 57.5113 404.187 56.088C403.17 54.6647 402.662 52.916 402.662 50.842C402.662 48.646 403.17 46.7143 404.187 45.047C405.244 43.339 406.769 41.997 408.762 41.021C410.754 40.0043 413.154 39.496 415.96 39.496C417.424 39.496 418.745 39.6587 419.925 39.984C421.145 40.2687 422.121 40.5737 422.853 40.899C423.219 41.021 423.503 41.2243 423.707 41.509C423.951 41.7937 424.134 42.1393 424.256 42.546C424.459 43.4 424.683 44.3963 424.927 45.535C425.171 46.6737 425.293 47.8327 425.293 49.012C425.293 49.4593 424.967 49.683 424.317 49.683C423.951 49.683 423.605 49.6017 423.28 49.439C422.954 49.2763 422.751 49.073 422.67 48.829C421.856 46.5517 420.84 44.8233 419.62 43.644C418.44 42.4647 416.936 41.875 415.106 41.875C413.886 41.875 412.767 42.0987 411.751 42.546C410.775 42.9527 409.982 43.644 409.372 44.62C408.802 45.5553 408.518 46.7957 408.518 48.341C408.518 49.439 408.884 50.476 409.616 51.452C410.388 52.3873 411.405 53.3023 412.666 54.197C413.967 55.051 415.411 55.9457 416.997 56.881C418.664 57.8977 420.169 58.955 421.511 60.053C422.853 61.151 423.91 62.4117 424.683 63.835C425.455 65.2177 425.842 66.885 425.842 68.837C425.842 71.399 425.272 73.595 424.134 75.425C422.995 77.2143 421.389 78.5767 419.315 79.512C417.281 80.4473 414.882 80.915 412.117 80.915Z" fill="white"/>
<path d="M138.74 116.48C137.204 116.48 135.721 116.224 134.292 115.712C132.884 115.2 131.636 114.475 130.548 113.536C129.46 112.597 128.596 111.467 127.956 110.144C127.337 108.821 127.028 107.349 127.028 105.728C127.028 104.213 127.348 102.795 127.988 101.472C128.628 100.128 129.513 98.9653 130.644 97.984C131.796 96.9813 133.129 96.2027 134.644 95.648C136.159 95.072 137.801 94.784 139.572 94.784C140.361 94.784 141.065 94.8267 141.684 94.912C142.303 94.976 142.9 95.072 143.476 95.2C144.052 95.328 144.671 95.4987 145.332 95.712C145.609 95.7973 145.812 95.9147 145.94 96.064C146.089 96.2133 146.175 96.4373 146.196 96.736C146.26 97.2907 146.313 97.8667 146.356 98.464C146.42 99.0613 146.463 99.7227 146.484 100.448C146.484 100.64 146.399 100.779 146.228 100.864C146.079 100.949 145.908 100.971 145.716 100.928C145.524 100.864 145.396 100.715 145.332 100.48C145.14 99.776 144.916 99.1467 144.66 98.592C144.404 98.0373 144.031 97.5787 143.54 97.216C143.049 96.832 142.42 96.5333 141.652 96.32C140.905 96.1067 140.063 96 139.124 96C137.929 96 136.831 96.2453 135.828 96.736C134.825 97.2267 133.972 97.8987 133.268 98.752C132.564 99.584 132.009 100.533 131.604 101.6C131.22 102.667 131.028 103.776 131.028 104.928C131.028 106.272 131.209 107.563 131.572 108.8C131.956 110.037 132.5 111.136 133.204 112.096C133.929 113.056 134.804 113.824 135.828 114.4C136.852 114.955 138.004 115.232 139.284 115.232C140.82 115.232 142.089 114.891 143.092 114.208C144.095 113.504 144.937 112.501 145.62 111.2C145.769 110.901 145.993 110.752 146.292 110.752C146.591 110.752 146.74 110.923 146.74 111.264C146.74 111.477 146.697 111.776 146.612 112.16C146.548 112.523 146.452 112.928 146.324 113.376C146.196 113.803 146.068 114.197 145.94 114.56C145.812 114.837 145.695 115.029 145.588 115.136C145.481 115.243 145.279 115.349 144.98 115.456C144.169 115.797 143.209 116.053 142.1 116.224C141.012 116.395 139.892 116.48 138.74 116.48ZM162.739 116.448C161.31 116.448 159.944 116.203 158.643 115.712C157.363 115.2 156.222 114.485 155.219 113.568C154.216 112.629 153.416 111.52 152.819 110.24C152.243 108.939 151.955 107.499 151.955 105.92C151.955 104.469 152.19 103.083 152.659 101.76C153.15 100.416 153.854 99.2213 154.771 98.176C155.71 97.1307 156.872 96.2987 158.259 95.68C159.646 95.0613 161.235 94.752 163.027 94.752C164.478 94.752 165.843 95.008 167.123 95.52C168.424 96.0107 169.576 96.7253 170.579 97.664C171.582 98.5813 172.371 99.6907 172.947 100.992C173.544 102.272 173.843 103.701 173.843 105.28C173.843 106.709 173.598 108.096 173.107 109.44C172.638 110.784 171.934 111.979 170.995 113.024C170.078 114.069 168.926 114.901 167.539 115.52C166.152 116.139 164.552 116.448 162.739 116.448ZM163.251 115.104C164.744 115.104 165.982 114.763 166.963 114.08C167.966 113.376 168.712 112.405 169.203 111.168C169.715 109.931 169.971 108.501 169.971 106.88C169.971 105.451 169.811 104.096 169.491 102.816C169.192 101.536 168.734 100.395 168.115 99.392C167.496 98.368 166.718 97.5787 165.779 97.024C164.84 96.448 163.742 96.16 162.483 96.16C161.032 96.16 159.806 96.5013 158.803 97.184C157.822 97.8667 157.075 98.816 156.563 100.032C156.072 101.248 155.827 102.667 155.827 104.288C155.827 105.739 155.976 107.104 156.275 108.384C156.574 109.664 157.032 110.816 157.651 111.84C158.27 112.843 159.038 113.643 159.955 114.24C160.894 114.816 161.992 115.104 163.251 115.104ZM178.922 116.16C178.687 116.16 178.495 116.117 178.346 116.032C178.197 115.947 178.122 115.851 178.122 115.744C178.122 115.573 178.207 115.445 178.378 115.36C178.549 115.253 178.687 115.189 178.794 115.168C179.605 114.976 180.202 114.731 180.586 114.432C180.991 114.133 181.194 113.632 181.194 112.928V98.176C181.194 97.664 181.141 97.2907 181.034 97.056C180.927 96.8 180.725 96.608 180.426 96.48C180.149 96.352 179.743 96.2347 179.21 96.128C178.591 96 178.282 95.7867 178.282 95.488C178.282 95.3387 178.357 95.232 178.506 95.168C178.677 95.104 178.879 95.072 179.114 95.072C179.647 95.072 180.127 95.0827 180.554 95.104C180.981 95.1253 181.386 95.1467 181.77 95.168C182.154 95.1893 182.581 95.2 183.05 95.2C183.541 95.2 184.01 95.2 184.458 95.2C184.906 95.1787 185.365 95.1573 185.834 95.136C186.303 95.1147 186.805 95.104 187.338 95.104C187.594 95.104 187.786 95.136 187.914 95.2C188.063 95.2427 188.138 95.3387 188.138 95.488C188.138 95.6587 188.063 95.7973 187.914 95.904C187.765 95.9893 187.53 96.064 187.21 96.128C186.399 96.32 185.759 96.5333 185.29 96.768C184.821 96.9813 184.586 97.3973 184.586 98.016V112.832C184.586 113.493 184.725 113.973 185.002 114.272C185.301 114.549 185.898 114.688 186.794 114.688H190.506C191.061 114.688 191.541 114.603 191.946 114.432C192.373 114.261 192.703 114.069 192.938 113.856C193.343 113.493 193.653 113.152 193.866 112.832C194.101 112.491 194.346 112.043 194.602 111.488C194.709 111.253 194.826 111.029 194.954 110.816C195.082 110.603 195.221 110.496 195.37 110.496C195.519 110.496 195.626 110.571 195.69 110.72C195.754 110.848 195.786 110.976 195.786 111.104C195.786 111.147 195.775 111.2 195.754 111.264C195.733 111.328 195.722 111.392 195.722 111.456C195.573 112.032 195.434 112.544 195.306 112.992C195.178 113.44 195.071 113.867 194.986 114.272C194.922 114.677 194.869 115.115 194.826 115.584C194.805 115.733 194.762 115.872 194.698 116C194.634 116.107 194.517 116.16 194.346 116.16C193.514 116.16 192.629 116.149 191.69 116.128C190.751 116.107 189.802 116.085 188.842 116.064C187.882 116.064 186.933 116.053 185.994 116.032C185.077 116.011 184.191 116 183.338 116C182.826 116 182.25 116.011 181.61 116.032C180.991 116.053 180.415 116.075 179.882 116.096C179.37 116.139 179.05 116.16 178.922 116.16ZM199.881 116.16C199.646 116.16 199.454 116.117 199.305 116.032C199.155 115.947 199.081 115.851 199.081 115.744C199.081 115.573 199.166 115.445 199.337 115.36C199.507 115.253 199.646 115.189 199.753 115.168C200.563 114.976 201.161 114.731 201.545 114.432C201.95 114.133 202.153 113.632 202.153 112.928V98.176C202.153 97.664 202.099 97.2907 201.993 97.056C201.886 96.8 201.683 96.608 201.385 96.48C201.107 96.352 200.702 96.2347 200.169 96.128C199.55 96 199.241 95.7867 199.241 95.488C199.241 95.3387 199.315 95.232 199.465 95.168C199.635 95.104 199.838 95.072 200.073 95.072C200.606 95.072 201.086 95.0827 201.513 95.104C201.939 95.1253 202.345 95.1467 202.729 95.168C203.113 95.1893 203.539 95.2 204.009 95.2C204.499 95.2 204.969 95.2 205.417 95.2C205.865 95.1787 206.323 95.1573 206.793 95.136C207.262 95.1147 207.763 95.104 208.297 95.104C208.553 95.104 208.745 95.136 208.873 95.2C209.022 95.2427 209.097 95.3387 209.097 95.488C209.097 95.6587 209.022 95.7973 208.873 95.904C208.723 95.9893 208.489 96.064 208.169 96.128C207.358 96.32 206.718 96.5333 206.249 96.768C205.779 96.9813 205.545 97.3973 205.545 98.016V112.832C205.545 113.493 205.683 113.973 205.961 114.272C206.259 114.549 206.857 114.688 207.753 114.688H211.465C212.019 114.688 212.499 114.603 212.905 114.432C213.331 114.261 213.662 114.069 213.897 113.856C214.302 113.493 214.611 113.152 214.825 112.832C215.059 112.491 215.305 112.043 215.561 111.488C215.667 111.253 215.785 111.029 215.913 110.816C216.041 110.603 216.179 110.496 216.329 110.496C216.478 110.496 216.585 110.571 216.649 110.72C216.713 110.848 216.745 110.976 216.745 111.104C216.745 111.147 216.734 111.2 216.713 111.264C216.691 111.328 216.681 111.392 216.681 111.456C216.531 112.032 216.393 112.544 216.265 112.992C216.137 113.44 216.03 113.867 215.945 114.272C215.881 114.677 215.827 115.115 215.785 115.584C215.763 115.733 215.721 115.872 215.657 116C215.593 116.107 215.475 116.16 215.305 116.16C214.473 116.16 213.587 116.149 212.649 116.128C211.71 116.107 210.761 116.085 209.801 116.064C208.841 116.064 207.891 116.053 206.953 116.032C206.035 116.011 205.15 116 204.297 116C203.785 116 203.209 116.011 202.569 116.032C201.95 116.053 201.374 116.075 200.841 116.096C200.329 116.139 200.009 116.16 199.881 116.16ZM221.063 116.16C220.807 116.16 220.605 116.128 220.455 116.064C220.306 116 220.231 115.904 220.231 115.776C220.231 115.499 220.541 115.296 221.159 115.168C221.949 114.997 222.514 114.763 222.855 114.464C223.218 114.144 223.399 113.611 223.399 112.864V98.4C223.399 97.6747 223.25 97.152 222.951 96.832C222.653 96.512 222.109 96.2773 221.319 96.128C220.999 96.064 220.765 95.9787 220.615 95.872C220.466 95.7653 220.391 95.6373 220.391 95.488C220.391 95.36 220.466 95.264 220.615 95.2C220.765 95.1147 220.967 95.072 221.223 95.072C221.927 95.072 222.557 95.0827 223.111 95.104C223.687 95.1253 224.242 95.1467 224.775 95.168C225.33 95.1893 225.927 95.2 226.567 95.2C227.421 95.2 228.317 95.2 229.255 95.2C230.215 95.1787 231.079 95.1573 231.847 95.136C232.573 95.136 233.17 95.1253 233.639 95.104C234.13 95.0613 234.418 95.04 234.503 95.04C234.631 95.04 234.759 95.072 234.887 95.136C235.037 95.1787 235.122 95.2747 235.143 95.424C235.25 96.0853 235.357 96.736 235.463 97.376C235.591 97.9947 235.655 98.5387 235.655 99.008C235.655 99.2213 235.602 99.3707 235.495 99.456C235.41 99.52 235.314 99.552 235.207 99.552C235.101 99.552 235.015 99.52 234.951 99.456C234.887 99.392 234.823 99.296 234.759 99.168C234.61 98.7413 234.471 98.3573 234.343 98.016C234.215 97.6533 234.066 97.3867 233.895 97.216C233.618 96.9173 233.298 96.6933 232.935 96.544C232.573 96.3947 232.167 96.32 231.719 96.32H228.135C227.858 96.32 227.559 96.4267 227.239 96.64C226.941 96.832 226.791 97.1093 226.791 97.472V104C226.791 104.213 226.855 104.384 226.983 104.512C227.111 104.64 227.261 104.704 227.431 104.704H230.471C231.09 104.704 231.517 104.565 231.751 104.288C231.986 104.011 232.178 103.584 232.327 103.008C232.477 102.581 232.679 102.368 232.935 102.368C233.042 102.368 233.138 102.421 233.223 102.528C233.309 102.613 233.351 102.752 233.351 102.944C233.351 103.072 233.341 103.285 233.319 103.584C233.298 103.883 233.277 104.192 233.255 104.512C233.234 104.832 233.223 105.088 233.223 105.28C233.223 105.515 233.223 105.803 233.223 106.144C233.245 106.464 233.266 106.784 233.287 107.104C233.309 107.424 233.319 107.659 233.319 107.808C233.341 108 233.319 108.16 233.255 108.288C233.213 108.395 233.138 108.448 233.031 108.448C232.69 108.448 232.434 108.139 232.263 107.52C232.135 106.965 231.954 106.549 231.719 106.272C231.506 105.995 231.186 105.856 230.759 105.856H227.783C227.442 105.856 227.186 105.909 227.015 106.016C226.866 106.123 226.791 106.347 226.791 106.688V112.8C226.791 113.547 226.951 114.069 227.271 114.368C227.591 114.645 228.082 114.784 228.743 114.784H231.271C231.869 114.784 232.391 114.741 232.839 114.656C233.287 114.571 233.671 114.411 233.991 114.176C234.354 113.92 234.674 113.589 234.951 113.184C235.229 112.779 235.517 112.277 235.815 111.68C235.901 111.552 235.986 111.456 236.071 111.392C236.157 111.307 236.253 111.275 236.359 111.296C236.487 111.296 236.573 111.349 236.615 111.456C236.679 111.541 236.711 111.659 236.711 111.808C236.711 112.043 236.658 112.395 236.551 112.864C236.445 113.333 236.306 113.824 236.135 114.336C235.986 114.848 235.847 115.285 235.719 115.648C235.655 115.797 235.581 115.915 235.495 116C235.41 116.107 235.303 116.16 235.175 116.16C234.407 116.16 233.607 116.149 232.775 116.128C231.943 116.107 231.09 116.085 230.215 116.064C229.341 116.043 228.466 116.021 227.591 116C226.717 115.979 225.853 115.968 224.999 115.968C224.551 115.968 224.125 115.979 223.719 116C223.314 116.043 222.898 116.075 222.471 116.096C222.066 116.139 221.597 116.16 221.063 116.16ZM252.659 116.48C251.123 116.48 249.64 116.224 248.211 115.712C246.803 115.2 245.555 114.475 244.467 113.536C243.379 112.597 242.515 111.467 241.875 110.144C241.256 108.821 240.947 107.349 240.947 105.728C240.947 104.213 241.267 102.795 241.907 101.472C242.547 100.128 243.432 98.9653 244.563 97.984C245.715 96.9813 247.048 96.2027 248.563 95.648C250.078 95.072 251.72 94.784 253.491 94.784C254.28 94.784 254.984 94.8267 255.603 94.912C256.222 94.976 256.819 95.072 257.395 95.2C257.971 95.328 258.59 95.4987 259.251 95.712C259.528 95.7973 259.731 95.9147 259.859 96.064C260.008 96.2133 260.094 96.4373 260.115 96.736C260.179 97.2907 260.232 97.8667 260.275 98.464C260.339 99.0613 260.382 99.7227 260.403 100.448C260.403 100.64 260.318 100.779 260.147 100.864C259.998 100.949 259.827 100.971 259.635 100.928C259.443 100.864 259.315 100.715 259.251 100.48C259.059 99.776 258.835 99.1467 258.579 98.592C258.323 98.0373 257.95 97.5787 257.459 97.216C256.968 96.832 256.339 96.5333 255.571 96.32C254.824 96.1067 253.982 96 253.043 96C251.848 96 250.75 96.2453 249.747 96.736C248.744 97.2267 247.891 97.8987 247.187 98.752C246.483 99.584 245.928 100.533 245.523 101.6C245.139 102.667 244.947 103.776 244.947 104.928C244.947 106.272 245.128 107.563 245.491 108.8C245.875 110.037 246.419 111.136 247.123 112.096C247.848 113.056 248.723 113.824 249.747 114.4C250.771 114.955 251.923 115.232 253.203 115.232C254.739 115.232 256.008 114.891 257.011 114.208C258.014 113.504 258.856 112.501 259.539 111.2C259.688 110.901 259.912 110.752 260.211 110.752C260.51 110.752 260.659 110.923 260.659 111.264C260.659 111.477 260.616 111.776 260.531 112.16C260.467 112.523 260.371 112.928 260.243 113.376C260.115 113.803 259.987 114.197 259.859 114.56C259.731 114.837 259.614 115.029 259.507 115.136C259.4 115.243 259.198 115.349 258.899 115.456C258.088 115.797 257.128 116.053 256.019 116.224C254.931 116.395 253.811 116.48 252.659 116.48ZM271.378 116.128C271.143 116.128 270.94 116.096 270.77 116.032C270.599 115.989 270.514 115.893 270.514 115.744C270.514 115.595 270.599 115.477 270.77 115.392C270.94 115.285 271.175 115.2 271.474 115.136C272.284 114.987 272.892 114.741 273.298 114.4C273.703 114.059 273.906 113.515 273.906 112.768V100.096C273.906 99.1573 273.884 98.4533 273.842 97.984C273.799 97.4933 273.735 97.1627 273.65 96.992C273.564 96.8 273.447 96.6827 273.298 96.64C273.042 96.576 272.754 96.544 272.434 96.544C272.114 96.5227 271.74 96.512 271.314 96.512H270.066C269.511 96.512 268.956 96.64 268.402 96.896C267.868 97.1307 267.463 97.472 267.186 97.92C267.1 98.048 266.972 98.2293 266.802 98.464C266.652 98.6773 266.482 98.8693 266.29 99.04C266.098 99.1893 265.906 99.264 265.714 99.264C265.607 99.264 265.522 99.2213 265.458 99.136C265.415 99.0507 265.394 98.944 265.394 98.816C265.394 98.5813 265.458 98.3467 265.586 98.112C265.927 97.4293 266.172 96.832 266.322 96.32C266.471 95.808 266.588 95.2 266.674 94.496C266.716 94.1547 266.802 93.9413 266.93 93.856C267.058 93.7707 267.186 93.728 267.314 93.728C267.42 93.728 267.559 93.8667 267.73 94.144C267.922 94.4 268.071 94.6133 268.178 94.784C268.348 94.976 268.668 95.1253 269.138 95.232C269.607 95.3387 270.044 95.392 270.45 95.392L282.002 95.36C282.663 95.36 283.207 95.3173 283.634 95.232C284.082 95.1467 284.444 95.04 284.722 94.912C285.02 94.7627 285.255 94.6027 285.426 94.432C285.596 94.24 285.82 94.144 286.098 94.144C286.183 94.144 286.247 94.2187 286.29 94.368C286.332 94.496 286.354 94.6453 286.354 94.816C286.354 94.9013 286.343 95.0293 286.322 95.2C286.3 95.3707 286.279 95.5093 286.258 95.616C286.172 96.0213 286.087 96.3413 286.002 96.576C285.938 96.8107 285.884 97.0347 285.842 97.248C285.82 97.44 285.81 97.696 285.81 98.016V98.464C285.81 98.72 285.767 98.9653 285.682 99.2C285.596 99.4347 285.468 99.552 285.298 99.552C285.127 99.552 284.988 99.4453 284.882 99.232C284.775 98.9973 284.668 98.6667 284.562 98.24C284.434 97.6853 284.146 97.2587 283.698 96.96C283.271 96.6613 282.556 96.512 281.554 96.512H278.866C278.439 96.512 278.108 96.5867 277.874 96.736C277.639 96.864 277.479 97.184 277.394 97.696C277.33 98.1867 277.298 98.9867 277.298 100.096V112.768C277.298 113.493 277.5 114.027 277.906 114.368C278.332 114.709 278.951 114.965 279.762 115.136C280.06 115.2 280.284 115.275 280.434 115.36C280.604 115.445 280.69 115.573 280.69 115.744C280.69 115.872 280.615 115.968 280.466 116.032C280.316 116.096 280.114 116.128 279.858 116.128C279.324 116.128 278.834 116.107 278.386 116.064C277.938 116.043 277.5 116.021 277.074 116C276.647 115.979 276.199 115.968 275.73 115.968C275.218 115.968 274.738 115.979 274.29 116C273.842 116.021 273.383 116.043 272.914 116.064C272.444 116.107 271.932 116.128 271.378 116.128ZM289.992 116.128C289.758 116.128 289.555 116.096 289.384 116.032C289.235 115.989 289.16 115.893 289.16 115.744C289.16 115.467 289.47 115.264 290.088 115.136C290.899 114.987 291.496 114.752 291.88 114.432C292.264 114.112 292.456 113.589 292.456 112.864V98.4C292.456 97.6747 292.307 97.1627 292.008 96.864C291.71 96.544 291.155 96.2987 290.344 96.128C289.726 96 289.416 95.7867 289.416 95.488C289.416 95.3387 289.491 95.232 289.64 95.168C289.79 95.104 289.982 95.072 290.216 95.072C290.771 95.072 291.262 95.0827 291.688 95.104C292.136 95.1253 292.563 95.1467 292.968 95.168C293.374 95.1893 293.811 95.2 294.28 95.2C294.728 95.2 295.144 95.2 295.528 95.2C295.934 95.1787 296.339 95.1573 296.744 95.136C297.171 95.1147 297.651 95.104 298.184 95.104C298.44 95.104 298.643 95.136 298.792 95.2C298.942 95.2427 299.016 95.3387 299.016 95.488C299.016 95.6587 298.931 95.7973 298.76 95.904C298.611 95.9893 298.387 96.064 298.088 96.128C297.256 96.32 296.67 96.5653 296.328 96.864C296.008 97.1627 295.848 97.6747 295.848 98.4V112.864C295.848 113.568 296.051 114.08 296.456 114.4C296.862 114.72 297.459 114.965 298.248 115.136C298.568 115.2 298.803 115.275 298.952 115.36C299.102 115.445 299.176 115.573 299.176 115.744C299.176 115.872 299.102 115.968 298.952 116.032C298.824 116.096 298.632 116.128 298.376 116.128C297.843 116.128 297.352 116.107 296.904 116.064C296.456 116.043 296.019 116.021 295.592 116C295.187 115.979 294.75 115.968 294.28 115.968C293.768 115.968 293.288 115.979 292.84 116C292.414 116.021 291.966 116.043 291.496 116.064C291.027 116.107 290.526 116.128 289.992 116.128ZM312.477 116.448C312.264 116.448 312.104 116.341 311.997 116.128C311.891 115.851 311.752 115.488 311.581 115.04C311.432 114.592 311.293 114.208 311.165 113.888L305.181 98.464C304.968 97.888 304.68 97.408 304.317 97.024C303.955 96.6187 303.485 96.3413 302.909 96.192C302.611 96.0853 302.376 95.9893 302.205 95.904C302.035 95.7973 301.949 95.6587 301.949 95.488C301.949 95.3387 302.024 95.2427 302.173 95.2C302.344 95.136 302.547 95.104 302.781 95.104C303.165 95.104 303.581 95.1147 304.029 95.136C304.499 95.1573 304.989 95.1787 305.501 95.2C306.013 95.2 306.504 95.2 306.973 95.2C307.4 95.2 307.848 95.1893 308.317 95.168C308.808 95.1467 309.277 95.136 309.725 95.136C310.173 95.1147 310.547 95.104 310.845 95.104C311.08 95.104 311.283 95.136 311.453 95.2C311.645 95.264 311.741 95.36 311.741 95.488C311.741 95.6587 311.645 95.808 311.453 95.936C311.283 96.0427 311.048 96.1173 310.749 96.16C310.131 96.2453 309.64 96.384 309.277 96.576C308.915 96.768 308.733 97.0453 308.733 97.408C308.733 97.6853 308.765 97.9413 308.829 98.176C308.915 98.4107 308.979 98.6027 309.021 98.752L313.469 110.688C313.512 110.795 313.565 110.859 313.629 110.88C313.693 110.901 313.757 110.827 313.821 110.656L317.949 99.744C318.376 98.6347 318.419 97.792 318.077 97.216C317.757 96.6187 317.213 96.2773 316.445 96.192C316.147 96.1493 315.901 96.0747 315.709 95.968C315.517 95.84 315.421 95.6907 315.421 95.52C315.421 95.392 315.507 95.296 315.677 95.232C315.869 95.168 316.093 95.136 316.349 95.136C316.691 95.136 317.021 95.1467 317.341 95.168C317.661 95.168 317.992 95.1787 318.333 95.2C318.675 95.2 319.059 95.2 319.485 95.2C320.104 95.2 320.733 95.1787 321.373 95.136C322.035 95.0933 322.6 95.072 323.069 95.072C323.347 95.072 323.571 95.104 323.741 95.168C323.933 95.2107 324.029 95.3173 324.029 95.488C324.029 95.6373 323.933 95.7653 323.741 95.872C323.571 95.9573 323.336 96.0427 323.037 96.128C322.291 96.2987 321.661 96.6507 321.149 97.184C320.659 97.696 320.275 98.304 319.997 99.008L314.397 112.576C314.248 112.917 314.088 113.301 313.917 113.728C313.747 114.155 313.576 114.581 313.405 115.008C313.256 115.413 313.096 115.787 312.925 116.128C312.883 116.235 312.819 116.309 312.733 116.352C312.669 116.416 312.584 116.448 312.477 116.448ZM327.888 116.16C327.632 116.16 327.43 116.128 327.28 116.064C327.131 116 327.056 115.904 327.056 115.776C327.056 115.499 327.366 115.296 327.984 115.168C328.774 114.997 329.339 114.763 329.68 114.464C330.043 114.144 330.224 113.611 330.224 112.864V98.4C330.224 97.6747 330.075 97.152 329.776 96.832C329.478 96.512 328.934 96.2773 328.144 96.128C327.824 96.064 327.59 95.9787 327.44 95.872C327.291 95.7653 327.216 95.6373 327.216 95.488C327.216 95.36 327.291 95.264 327.44 95.2C327.59 95.1147 327.792 95.072 328.048 95.072C328.752 95.072 329.382 95.0827 329.936 95.104C330.512 95.1253 331.067 95.1467 331.6 95.168C332.155 95.1893 332.752 95.2 333.392 95.2C334.246 95.2 335.142 95.2 336.08 95.2C337.04 95.1787 337.904 95.1573 338.672 95.136C339.398 95.136 339.995 95.1253 340.464 95.104C340.955 95.0613 341.243 95.04 341.328 95.04C341.456 95.04 341.584 95.072 341.712 95.136C341.862 95.1787 341.947 95.2747 341.968 95.424C342.075 96.0853 342.182 96.736 342.288 97.376C342.416 97.9947 342.48 98.5387 342.48 99.008C342.48 99.2213 342.427 99.3707 342.32 99.456C342.235 99.52 342.139 99.552 342.032 99.552C341.926 99.552 341.84 99.52 341.776 99.456C341.712 99.392 341.648 99.296 341.584 99.168C341.435 98.7413 341.296 98.3573 341.168 98.016C341.04 97.6533 340.891 97.3867 340.72 97.216C340.443 96.9173 340.123 96.6933 339.76 96.544C339.398 96.3947 338.992 96.32 338.544 96.32H334.96C334.683 96.32 334.384 96.4267 334.064 96.64C333.766 96.832 333.616 97.1093 333.616 97.472V104C333.616 104.213 333.68 104.384 333.808 104.512C333.936 104.64 334.086 104.704 334.256 104.704H337.296C337.915 104.704 338.342 104.565 338.576 104.288C338.811 104.011 339.003 103.584 339.152 103.008C339.302 102.581 339.504 102.368 339.76 102.368C339.867 102.368 339.963 102.421 340.048 102.528C340.134 102.613 340.176 102.752 340.176 102.944C340.176 103.072 340.166 103.285 340.144 103.584C340.123 103.883 340.102 104.192 340.08 104.512C340.059 104.832 340.048 105.088 340.048 105.28C340.048 105.515 340.048 105.803 340.048 106.144C340.07 106.464 340.091 106.784 340.112 107.104C340.134 107.424 340.144 107.659 340.144 107.808C340.166 108 340.144 108.16 340.08 108.288C340.038 108.395 339.963 108.448 339.856 108.448C339.515 108.448 339.259 108.139 339.088 107.52C338.96 106.965 338.779 106.549 338.544 106.272C338.331 105.995 338.011 105.856 337.584 105.856H334.608C334.267 105.856 334.011 105.909 333.84 106.016C333.691 106.123 333.616 106.347 333.616 106.688V112.8C333.616 113.547 333.776 114.069 334.096 114.368C334.416 114.645 334.907 114.784 335.568 114.784H338.096C338.694 114.784 339.216 114.741 339.664 114.656C340.112 114.571 340.496 114.411 340.816 114.176C341.179 113.92 341.499 113.589 341.776 113.184C342.054 112.779 342.342 112.277 342.64 111.68C342.726 111.552 342.811 111.456 342.896 111.392C342.982 111.307 343.078 111.275 343.184 111.296C343.312 111.296 343.398 111.349 343.44 111.456C343.504 111.541 343.536 111.659 343.536 111.808C343.536 112.043 343.483 112.395 343.376 112.864C343.27 113.333 343.131 113.824 342.96 114.336C342.811 114.848 342.672 115.285 342.544 115.648C342.48 115.797 342.406 115.915 342.32 116C342.235 116.107 342.128 116.16 342 116.16C341.232 116.16 340.432 116.149 339.6 116.128C338.768 116.107 337.915 116.085 337.04 116.064C336.166 116.043 335.291 116.021 334.416 116C333.542 115.979 332.678 115.968 331.824 115.968C331.376 115.968 330.95 115.979 330.544 116C330.139 116.043 329.723 116.075 329.296 116.096C328.891 116.139 328.422 116.16 327.888 116.16Z" fill="white"/>
<path d="M209.696 28.112C209.491 28.112 209.313 28.084 209.164 28.028C209.015 27.9907 208.94 27.9067 208.94 27.776C208.94 27.6453 209.015 27.5427 209.164 27.468C209.313 27.3747 209.519 27.3 209.78 27.244C210.489 27.1133 211.021 26.8987 211.376 26.6C211.731 26.3013 211.908 25.8253 211.908 25.172V14.084C211.908 13.2627 211.889 12.6467 211.852 12.236C211.815 11.8067 211.759 11.5173 211.684 11.368C211.609 11.2 211.507 11.0973 211.376 11.06C211.152 11.004 210.9 10.976 210.62 10.976C210.34 10.9573 210.013 10.948 209.64 10.948H208.548C208.063 10.948 207.577 11.06 207.092 11.284C206.625 11.4893 206.271 11.788 206.028 12.18C205.953 12.292 205.841 12.4507 205.692 12.656C205.561 12.8427 205.412 13.0107 205.244 13.16C205.076 13.2907 204.908 13.356 204.74 13.356C204.647 13.356 204.572 13.3187 204.516 13.244C204.479 13.1693 204.46 13.076 204.46 12.964C204.46 12.7587 204.516 12.5533 204.628 12.348C204.927 11.7507 205.141 11.228 205.272 10.78C205.403 10.332 205.505 9.8 205.58 9.184C205.617 8.88533 205.692 8.69867 205.804 8.624C205.916 8.54933 206.028 8.512 206.14 8.512C206.233 8.512 206.355 8.63333 206.504 8.876C206.672 9.1 206.803 9.28667 206.896 9.436C207.045 9.604 207.325 9.73467 207.736 9.828C208.147 9.92133 208.529 9.968 208.884 9.968L218.992 9.94C219.571 9.94 220.047 9.90267 220.42 9.828C220.812 9.75333 221.129 9.66 221.372 9.548C221.633 9.41733 221.839 9.27733 221.988 9.128C222.137 8.96 222.333 8.876 222.576 8.876C222.651 8.876 222.707 8.94133 222.744 9.072C222.781 9.184 222.8 9.31467 222.8 9.464C222.8 9.53867 222.791 9.65067 222.772 9.8C222.753 9.94933 222.735 10.0707 222.716 10.164C222.641 10.5187 222.567 10.7987 222.492 11.004C222.436 11.2093 222.389 11.4053 222.352 11.592C222.333 11.76 222.324 11.984 222.324 12.264V12.656C222.324 12.88 222.287 13.0947 222.212 13.3C222.137 13.5053 222.025 13.608 221.876 13.608C221.727 13.608 221.605 13.5147 221.512 13.328C221.419 13.1227 221.325 12.8333 221.232 12.46C221.12 11.9747 220.868 11.6013 220.476 11.34C220.103 11.0787 219.477 10.948 218.6 10.948H216.248C215.875 10.948 215.585 11.0133 215.38 11.144C215.175 11.256 215.035 11.536 214.96 11.984C214.904 12.4133 214.876 13.1133 214.876 14.084V25.172C214.876 25.8067 215.053 26.2733 215.408 26.572C215.781 26.8707 216.323 27.0947 217.032 27.244C217.293 27.3 217.489 27.3653 217.62 27.44C217.769 27.5147 217.844 27.6267 217.844 27.776C217.844 27.888 217.779 27.972 217.648 28.028C217.517 28.084 217.34 28.112 217.116 28.112C216.649 28.112 216.22 28.0933 215.828 28.056C215.436 28.0373 215.053 28.0187 214.68 28C214.307 27.9813 213.915 27.972 213.504 27.972C213.056 27.972 212.636 27.9813 212.244 28C211.852 28.0187 211.451 28.0373 211.04 28.056C210.629 28.0933 210.181 28.112 209.696 28.112ZM226.32 28.112C226.115 28.112 225.947 28.0747 225.816 28C225.685 27.944 225.62 27.86 225.62 27.748C225.62 27.524 225.881 27.356 226.404 27.244C227.095 27.1133 227.552 26.908 227.776 26.628C228 26.348 228.112 25.8907 228.112 25.256V12.572C228.112 11.9373 228.028 11.4893 227.86 11.228C227.692 10.9667 227.263 10.7613 226.572 10.612C226.031 10.5 225.76 10.3227 225.76 10.08C225.76 9.968 225.816 9.87467 225.928 9.8C226.059 9.72533 226.236 9.688 226.46 9.688C226.945 9.688 227.356 9.69733 227.692 9.716C228.028 9.73467 228.345 9.75333 228.644 9.772C228.961 9.79067 229.307 9.8 229.68 9.8C230.072 9.8 230.427 9.8 230.744 9.8C231.08 9.78133 231.425 9.76267 231.78 9.744C232.153 9.72533 232.573 9.716 233.04 9.716C233.525 9.716 233.768 9.83733 233.768 10.08C233.768 10.2293 233.693 10.3413 233.544 10.416C233.413 10.4907 233.217 10.556 232.956 10.612C232.247 10.78 231.752 11.0133 231.472 11.312C231.211 11.6107 231.08 12.0307 231.08 12.572V17.92C231.08 18.0507 231.117 18.1347 231.192 18.172C231.285 18.2093 231.379 18.228 231.472 18.228H240.824C240.992 18.228 241.076 18.1067 241.076 17.864V12.572C241.076 12.0493 240.945 11.6387 240.684 11.34C240.441 11.0227 239.956 10.78 239.228 10.612C238.948 10.556 238.743 10.4907 238.612 10.416C238.481 10.3413 238.416 10.2293 238.416 10.08C238.416 9.83733 238.649 9.716 239.116 9.716C239.583 9.716 240.012 9.72533 240.404 9.744C240.796 9.76267 241.169 9.78133 241.524 9.8C241.897 9.8 242.28 9.8 242.672 9.8C243.027 9.8 243.335 9.79067 243.596 9.772C243.876 9.75333 244.165 9.73467 244.464 9.716C244.781 9.69733 245.183 9.688 245.668 9.688C245.892 9.688 246.069 9.72533 246.2 9.8C246.331 9.87467 246.396 9.968 246.396 10.08C246.396 10.3227 246.125 10.5 245.584 10.612C244.893 10.7613 244.464 10.9853 244.296 11.284C244.128 11.564 244.044 11.984 244.044 12.544V25.228C244.044 25.8813 244.137 26.348 244.324 26.628C244.529 26.908 244.968 27.1133 245.64 27.244C246.163 27.356 246.424 27.524 246.424 27.748C246.424 27.86 246.349 27.944 246.2 28C246.069 28.0747 245.901 28.112 245.696 28.112C245.248 28.112 244.847 28.0933 244.492 28.056C244.156 28.0373 243.829 28.0187 243.512 28C243.195 27.9813 242.849 27.972 242.476 27.972C242.084 27.972 241.72 27.9813 241.384 28C241.067 28.0187 240.721 28.0373 240.348 28.056C239.975 28.0933 239.555 28.112 239.088 28.112C238.864 28.112 238.687 28.0747 238.556 28C238.444 27.944 238.388 27.86 238.388 27.748C238.388 27.5987 238.444 27.496 238.556 27.44C238.687 27.3653 238.892 27.3 239.172 27.244C239.807 27.1133 240.283 26.8987 240.6 26.6C240.917 26.3013 241.076 25.8627 241.076 25.284V19.88C241.076 19.768 241.067 19.6747 241.048 19.6C241.029 19.5067 240.964 19.46 240.852 19.46H231.304C231.155 19.46 231.08 19.572 231.08 19.796V25.088C231.08 25.648 231.267 26.1147 231.64 26.488C232.013 26.8613 232.527 27.1133 233.18 27.244C233.46 27.3 233.665 27.3653 233.796 27.44C233.927 27.496 233.992 27.5987 233.992 27.748C233.992 27.86 233.927 27.944 233.796 28C233.665 28.0747 233.488 28.112 233.264 28.112C232.797 28.112 232.368 28.0933 231.976 28.056C231.584 28.0373 231.201 28.0187 230.828 28C230.473 27.9813 230.091 27.972 229.68 27.972C229.307 27.972 228.952 27.9813 228.616 28C228.28 28.0187 227.925 28.0373 227.552 28.056C227.197 28.0933 226.787 28.112 226.32 28.112ZM250.894 28.14C250.67 28.14 250.493 28.112 250.362 28.056C250.231 28 250.166 27.916 250.166 27.804C250.166 27.5613 250.437 27.384 250.978 27.272C251.669 27.1227 252.163 26.9173 252.462 26.656C252.779 26.376 252.938 25.9093 252.938 25.256V12.6C252.938 11.9653 252.807 11.508 252.546 11.228C252.285 10.948 251.809 10.7427 251.118 10.612C250.838 10.556 250.633 10.4813 250.502 10.388C250.371 10.2947 250.306 10.1827 250.306 10.052C250.306 9.94 250.371 9.856 250.502 9.8C250.633 9.72533 250.81 9.688 251.034 9.688C251.65 9.688 252.201 9.69733 252.686 9.716C253.19 9.73467 253.675 9.75333 254.142 9.772C254.627 9.79067 255.15 9.8 255.71 9.8C256.457 9.8 257.241 9.8 258.062 9.8C258.902 9.78133 259.658 9.76267 260.33 9.744C260.965 9.744 261.487 9.73467 261.898 9.716C262.327 9.67867 262.579 9.66 262.654 9.66C262.766 9.66 262.878 9.688 262.99 9.744C263.121 9.78133 263.195 9.86533 263.214 9.996C263.307 10.5747 263.401 11.144 263.494 11.704C263.606 12.2453 263.662 12.7213 263.662 13.132C263.662 13.3187 263.615 13.4493 263.522 13.524C263.447 13.58 263.363 13.608 263.27 13.608C263.177 13.608 263.102 13.58 263.046 13.524C262.99 13.468 262.934 13.384 262.878 13.272C262.747 12.8987 262.626 12.5627 262.514 12.264C262.402 11.9467 262.271 11.7133 262.122 11.564C261.879 11.3027 261.599 11.1067 261.282 10.976C260.965 10.8453 260.61 10.78 260.218 10.78H257.082C256.839 10.78 256.578 10.8733 256.298 11.06C256.037 11.228 255.906 11.4707 255.906 11.788V17.5C255.906 17.6867 255.962 17.836 256.074 17.948C256.186 18.06 256.317 18.116 256.466 18.116H259.126C259.667 18.116 260.041 17.9947 260.246 17.752C260.451 17.5093 260.619 17.136 260.75 16.632C260.881 16.2587 261.058 16.072 261.282 16.072C261.375 16.072 261.459 16.1187 261.534 16.212C261.609 16.2867 261.646 16.408 261.646 16.576C261.646 16.688 261.637 16.8747 261.618 17.136C261.599 17.3973 261.581 17.668 261.562 17.948C261.543 18.228 261.534 18.452 261.534 18.62C261.534 18.8253 261.534 19.0773 261.534 19.376C261.553 19.656 261.571 19.936 261.59 20.216C261.609 20.496 261.618 20.7013 261.618 20.832C261.637 21 261.618 21.14 261.562 21.252C261.525 21.3453 261.459 21.392 261.366 21.392C261.067 21.392 260.843 21.1213 260.694 20.58C260.582 20.0947 260.423 19.7307 260.218 19.488C260.031 19.2453 259.751 19.124 259.378 19.124H256.774C256.475 19.124 256.251 19.1707 256.102 19.264C255.971 19.3573 255.906 19.5533 255.906 19.852V25.2C255.906 25.8533 256.046 26.3107 256.326 26.572C256.606 26.8147 257.035 26.936 257.614 26.936H259.826C260.349 26.936 260.806 26.8987 261.198 26.824C261.59 26.7493 261.926 26.6093 262.206 26.404C262.523 26.18 262.803 25.8907 263.046 25.536C263.289 25.1813 263.541 24.7427 263.802 24.22C263.877 24.108 263.951 24.024 264.026 23.968C264.101 23.8933 264.185 23.8653 264.278 23.884C264.39 23.884 264.465 23.9307 264.502 24.024C264.558 24.0987 264.586 24.2013 264.586 24.332C264.586 24.5373 264.539 24.8453 264.446 25.256C264.353 25.6667 264.231 26.096 264.082 26.544C263.951 26.992 263.83 27.3747 263.718 27.692C263.662 27.8227 263.597 27.9253 263.522 28C263.447 28.0933 263.354 28.14 263.242 28.14C262.57 28.14 261.87 28.1307 261.142 28.112C260.414 28.0933 259.667 28.0747 258.902 28.056C258.137 28.0373 257.371 28.0187 256.606 28C255.841 27.9813 255.085 27.972 254.338 27.972C253.946 27.972 253.573 27.9813 253.218 28C252.863 28.0373 252.499 28.0653 252.126 28.084C251.771 28.1213 251.361 28.14 250.894 28.14Z" fill="white"/>
</svg>
