<?xml version="1.0" encoding="UTF-8"?>
<svg width="250px" height="250px" viewBox="0 0 250 250" version="1.1" xmlns="http://www.w3.org/2000/svg" xmlns:xlink="http://www.w3.org/1999/xlink">
    <title>Group</title>
    <defs>
        <path d="M123.61,0 L124.861,2.925 C125.55,4.534 130.473,11.251 135.801,17.851 C147.073844,31.8126875 150.491058,36.7196631 152.414116,42.2685787 L152.544449,42.6523981 L152.670508,43.0389598 C152.773905,43.3624335 152.873333,43.6895 152.97,44.022 L154.485,49.233 L160.181,46.257 C167.119,42.633 170.605,41.819 185.377,40.38 C201.89629,38.76999 205.801388,38.3204065 208.197669,37.5804233 L208.357056,37.5300804 C208.383282,37.5216111 208.409349,37.513101 208.435272,37.5045481 L208.58922,37.4527001 C208.614633,37.4439676 208.639935,37.4351882 208.665141,37.4263598 L208.81535,37.3727845 C208.890005,37.3456863 208.96408,37.31811 209.038,37.29 C211.647,36.298 212.045,37.456 210.5,41.536 C210.018,42.809 209.328,47.001 208.967,50.851 C206.966,72.166 205.323,80.858 202.048,87.446 L198.77,94.041 L203.08,95.194 C210.897,97.285 215.846,100.273 228.433,110.501 C228.67314,110.696123 228.913868,110.891416 229.154937,111.086687 L229.878921,111.672243 C230.120427,111.86728 230.362028,112.062103 230.603478,112.256521 L231.32713,112.83837 C237.229251,117.577095 242.893298,121.957912 244.702,123.164 L248.527,125.716 L245.702,127.172 C244.306034,127.891542 238.668728,132.083399 232.629095,136.869761 L231.94385,137.413998 C231.829425,137.505076 231.714909,137.596327 231.600326,137.687732 L230.912246,138.237849 L230.568,138.514 C215.665,150.484 211.942,152.894 205.092,155.003 L199.806,156.631 L203.048,163.241 C206.226,169.72 207.697,176.934 208.893,191.901 C209.155,195.173 209.662,199.651 210.02,201.851 C210.088381,202.270048 210.158649,202.707236 210.228591,203.148052 L210.332985,203.810184 C210.59198,205.463245 210.830857,207.065286 210.933,207.851 C211.076,208.951 211.508,210.638 211.892,211.601 C212.687,213.591 210.962,213.904 207.163,212.46 C205.873,211.969 201.457,211.265 197.348,210.894 C176.694,209.03 168.775,207.581 162.073,204.44 C155.15,201.197 155.292,201.129 152.834,208.851 C151.746,212.271 148.103,217.8 141.303,226.351 C140.796796,226.987574 140.285123,227.63363 139.771749,228.284242 L139.155127,229.066848 C138.949474,229.328235 138.743792,229.590036 138.538319,229.851935 L137.922776,230.637612 C133.519365,236.265893 129.324815,241.79387 127.737,244.088 L124.112,249.324 L121.379,245.088 C120.1766,243.2232 116.34892,238.1744 112.12828,232.850272 L111.550512,232.122821 C111.26062,231.758516 110.969373,231.393545 110.677478,231.02883 L110.093035,230.300017 C109.70311,229.814734 109.312873,229.331 108.924,228.851 C99.344,217.029 94.392,209.133 94.362,205.634 C94.325,201.328 92.936,201.089 86.263,204.242 C85.9484,204.39065 85.637955,204.533937 85.328728,204.672387 L84.9580523,204.836239 C84.6493298,204.970903 84.3406504,205.10094 84.0290773,205.226874 L83.6536126,205.376059 C78.2466536,207.487118 71.63604,208.44662 48.877,210.926 C41.854,211.691 40.481,211.94 38.127,212.872 C36.124,213.665 36.037,213.185 37.309,208.351 C37.3416104,208.226909 37.3735984,208.102771 37.4050454,207.977974 L37.4672421,207.727319 C38.2055235,204.704557 38.6633896,201.066948 39.965,188.351 C41.217,176.126 42.794,168.385 44.975,163.755 C46.296,160.951 47.377,158.21 47.377,157.663 C47.377,157.115 45.464,156.097 43.127,155.4 C41.6541111,154.960444 40.4152963,154.558272 39.2165254,154.068038 L38.8904349,153.932061 C34.8230698,152.202694 31.0160909,149.317364 19.782,140.306 C19.053619,139.721714 18.3258639,139.141329 17.6038253,138.568676 L16.8838807,137.998744 C10.3053117,132.800591 4.34966667,128.359587 2.938,127.628 L0,126.105 L2.938,124.591 C4.555,123.759 10.249,119.573 15.593,115.289 C30.591,103.266 37.411,98.698 43.155,96.824 C48.7390482,95.002747 49.0851513,94.8276801 45.4813845,87.5984814 L45.0481095,86.7325428 C44.9479634,86.5329353 44.845253,86.3284699 44.74,86.119 C42.554,81.769 41.412,75.957 39.877,61.351 C38.744575,50.58115 38.338353,47.0162753 37.8183323,44.1615028 L37.7684355,43.8915588 C37.7600531,43.8468567 37.7516353,43.8022816 37.7431788,43.7578075 L37.6919475,43.4919666 L37.6130041,43.0950225 C37.5326517,42.6979998 37.4478,42.2986375 37.356,41.878 C36.88,39.693 36.644,37.751 36.832,37.562 C37.021,37.374 38.908,37.669 41.026,38.219 C43.144,38.769 47.127,39.456 49.877,39.745 C52.627,40.035 57.352,40.532 60.377,40.851 C75.966,42.49 81.088,43.55 86.518,46.264 L92.283,49.144 L94.395,42.797 C96.537,36.36 100.792,30.081 113.699,14.309 C114.116,13.7994444 114.533148,13.2836049 114.946428,12.7669163 L115.44025,12.1468302 C118.552773,8.22144296 121.349067,4.37257778 122.066,2.986 L123.61,0 Z M120.427,19.963 C117.051,26.327 112.724,31.594 109.547,33.206 C100.147,37.975 95.377,44.19 95.377,51.667 C95.377,53.693 95.061,55.351 94.675,55.351 C94.288,55.351 92.601,54.035 90.925,52.426 C86.463,48.144 79.478,47.102 71.777,49.568 C64.929,51.761 56.01,51.097 47.953,47.793 C46.334,47.129 46.155,47.308 46.819,48.927 C49.564,55.623 50.749,65.41 49.371,70.016 C46.306,80.259 46.904,86.109 51.597,91.802 C53.365,93.947 54.88,96.185 54.964,96.776 C55.051,97.379 53.088,97.966 50.497,98.112 C44.123,98.472 38.769,102.416 34.608,109.818 C31.058,116.133 30.284,116.859 21.094,122.514 L15.141,126.178 L18.509,127.881 C25.351,131.34 32.085,137.198 34.192,141.522 C38.281,149.916 43.025,153.619 49.574,153.529 C51.877,153.497 54.166,153.721 54.66,154.026 C55.154,154.331 53.931,156.248 51.942,158.284 C47.255,163.084 46.322,169.275 48.868,178.681 C50.536,184.842 50.537,185.536 48.88,192.982 L48.7282306,193.660009 C47.8152798,197.715803 46.8729474,201.499842 46.584,202.253 C46.165,203.347 46.497,203.506 47.953,202.909 C55.833,199.678 65.907,198.773 71.784,200.768 C80.259,203.645 86.364,202.41 92.627,196.55 C94.14,195.135 95.412,194.174 95.454,194.414 C95.496,194.654 95.75,196.876 96.018,199.351 C96.799,206.558 100.339,211.519 107.379,215.271 C113.526,218.548 117.522,222.889 121.489,230.601 C122.55,232.664 123.747,234.351 124.149,234.351 C124.551,234.351 125.982,232.275 127.327,229.739 C131.225,222.391 135.181,218.019 140.105,215.617 C148.351,211.594 151.683,206.955 151.537,199.699 C151.49,197.347 151.852,195.175 152.343,194.872 C152.833,194.569 154.922,195.868 156.986,197.759 C162.639,202.938 168.597,203.814 178.022,200.849 C183.388,199.161 184.065,199.158 191.626,200.783 L191.971305,200.85748 L192.659335,201.007322 C196.65856,201.883798 200.358211,202.790211 201.154,203.096 C202.378,203.566 202.555,203.275 201.957,201.775 C198.486,193.067 197.6,184.194 199.689,179.069 C202.812,171.405 200.954,161.898 195.339,156.816 C192.503,154.25 192.851,153.809 197.886,153.59 C205.52,153.257 210.492,149.546 215.335,140.565 C217.287,136.945 219.66,134.69 225.559,130.851 C226.110217,130.492304 226.648641,130.138287 227.168277,129.793221 L227.681428,129.451296 C230.888913,127.306671 233.262674,125.578174 233.280124,125.351 C233.301,125.076 230.657,123.328 227.405,121.466 C220.441,117.478 217.372,114.451 214.203,108.44 C210.723,101.839 205.819,98.355 199.022,97.654 C192.895,97.021 192.354,96.365 195.327,93.174 C200.637,87.475 201.702,81.057 198.974,71.198 C197.208,64.816 197.204,64.228 198.874,56.72 C199.832,52.416 200.838,48.314 201.11,47.604 C201.503,46.581 201.013,46.543 198.741,47.424 C197.166,48.035 194.977,48.709 193.877,48.922 C183.178,50.991 182.652,51.002 177.303,49.255 C167.616,46.092 160.801,47.326 156.074,53.101 C153.13,56.696 151.721,55.92 151.534,50.601 C151.3,43.957 147.463,38.779 139.491,34.351 C134.243,31.436 132.454,29.696 128.784,23.937 C126.36,20.135 124.377,16.647 124.377,16.187 C124.377,14.104 122.669,15.737 120.427,19.963 Z M78.715,21.854 C79.388,25.565 79.377,28.822 78.683,31.854 C78.118,34.327 78.017,36.351 78.459,36.351 C79.969,36.351 82.377,31.912 82.377,29.128 C82.377,25.965 83.007,25.706 85.41,27.881 C87.361,29.646 92.483,30.521 94.299,29.399 C95.096,28.907 94.41,28.408 92.38,28.002 C90.356,27.597 87.323,25.393 83.929,21.861 C81.017,18.83 78.429,16.351 78.176,16.351 C77.924,16.351 78.166,18.827 78.715,21.854 M163.877,21.591 C161.677,24.392 158.425,27.396 156.65,28.267 C154.875,29.138 153.412,30.177 153.4,30.576 C153.357,31.933 159.868,30.09 162.029,28.134 L164.182,26.186 L164.887,29.518 C165.579,32.786 168.895,37.351 170.577,37.351 C171.045,37.351 170.638,35.889 169.672,34.101 C168.427,31.796 167.94,28.742 167.999,23.601 C168.045,19.613 168.036,16.384 167.98,16.425 C167.923,16.466 166.077,18.791 163.877,21.591 M111.153,38.641 C108.372,40.889 108.267,43.332 110.842,45.907 C112.186,47.251 113.897,48.351 114.644,48.351 C116.85,48.351 121.29,53.666 121.984,57.137 C122.706,60.744 124.377,61.5 124.377,58.219 C124.377,54.535 128.182,49.646 132.346,47.98 C136.99,46.122 138.926,43.246 137.424,40.438 C135.844,37.486 134.364,37.518 131.315,40.567 C128.827,43.055 128.224,43.238 125.945,42.2 C123.982,41.306 122.768,41.307 120.794,42.207 C118.475,43.264 117.926,43.08 115.43,40.408 C113.156,37.973 112.377,37.651 111.153,38.641 M170.382,56.845 C169.613,57.772 169.41,59.386 169.848,61.095 C171.504,67.559 171.544,72.309 169.97,75.466 C169.089,77.231 168.513,78.821 168.691,78.998 C168.868,79.176 170.783,78.408 172.945,77.292 C176.966,75.216 182.416,75.323 185.086,77.529 C185.751,78.078 187.664,78.227 189.336,77.86 C192.015,77.272 192.377,76.777 192.377,73.704 C192.377,70.631 192.131,70.294 190.305,70.874 C186.937,71.943 183.657,70.601 182.972,67.875 C182.589,66.347 181.399,65.144 179.898,64.767 C177.07,64.057 176.019,61.626 176.945,57.936 C177.534,55.588 177.32,55.351 174.608,55.351 C172.966,55.351 171.064,56.023 170.382,56.845 M70.495,58.601 C70.924,63.598 70.379,65.212 68.152,65.531 C66.928,65.707 65.394,66.924 64.742,68.236 C63.131,71.48 61.365,72.45 58.254,71.798 C55.316,71.182 54.159,72.802 55.065,76.265 C55.825,79.172 59.354,79.806 63.985,77.867 C67.252,76.499 68.563,76.429 72.153,77.431 C74.504,78.088 76.668,79.014 76.962,79.488 C77.255,79.963 77.955,80.351 78.518,80.351 C79.08,80.351 78.603,78.835 77.459,76.983 C74.99,72.988 74.816,68.938 76.9,63.95 C78.89,59.187 77.548,56.351 73.304,56.351 C70.799,56.351 70.333,56.724 70.495,58.601 M33.936,79.883 C32.612,80.884 29.499,81.351 24.148,81.351 L16.302,81.351 L21.486,85.601 C24.337,87.939 27.504,91.419 28.524,93.335 L30.377,96.82 L30.377,93.24 C30.377,90.931 29.667,89.019 28.377,87.851 C25.746,85.47 25.854,84.831 28.93,84.576 C32.356,84.292 35.105,82.727 36.389,80.328 C37.633,78.004 36.655,77.826 33.936,79.883 M211.377,79.074 C211.377,80.925 215.12,83.411 218.236,83.63 C219.961,83.752 221.374,83.987 221.375,84.153 C221.376,84.319 220.385,86.179 219.172,88.286 C217.375,91.408 217.169,92.555 218.059,94.484 L219.15,96.851 L219.885,93.851 C220.289,92.201 223.153,88.219 226.248,85.002 C231.703,79.334 231.783,79.172 228.828,79.787 C223.593,80.877 214.4,80.615 212.854,79.332 C212.042,78.658 211.377,78.541 211.377,79.074 M41.326,113.402 L39.275,115.453 L42.342,118.319 C45.104,120.898 45.293,121.442 44.233,123.768 C43.33,125.749 43.33,126.953 44.233,128.934 C45.293,131.26 45.104,131.804 42.342,134.383 L39.275,137.249 L41.326,139.3 C42.454,140.428 43.727,141.351 44.154,141.351 C46.122,141.351 49.328,138.028 50.351,134.93 C51.589,131.18 54.322,128.972 59.497,127.541 C62.4,126.738 62.595,126.508 60.877,125.906 C53.883,123.455 52.181,122.163 50.274,117.851 C48.575,114.01 45.985,111.351 43.943,111.351 C43.632,111.351 42.454,112.274 41.326,113.402 M201.821,113.816 C200.477,115.16 199.377,116.871 199.377,117.618 C199.377,119.824 194.062,124.264 190.591,124.958 C186.984,125.68 186.228,127.351 189.509,127.351 C193.193,127.351 198.082,131.156 199.748,135.32 C201.606,139.964 204.482,141.9 207.29,140.398 C210.242,138.818 210.21,137.338 207.161,134.289 C204.673,131.801 204.49,131.198 205.528,128.919 C206.422,126.956 206.421,125.742 205.521,123.768 C204.464,121.449 204.648,120.9 207.32,118.404 C209.755,116.13 210.077,115.351 209.087,114.127 C206.839,111.346 204.396,111.241 201.821,113.816 M218.377,156.711 C218.377,158.01 219.443,160.643 220.746,162.563 L223.115,166.054 L220.128,166.139 C217.322,166.219 212.377,169.672 212.377,171.551 C212.377,172.019 213.77,171.682 215.474,170.801 C217.713,169.643 220.621,169.29 225.976,169.525 C230.049,169.704 233.347,169.626 233.305,169.351 C233.263,169.076 230.937,167.051 228.137,164.851 C225.336,162.651 222.332,159.399 221.461,157.624 C219.584,153.799 218.377,153.442 218.377,156.711 M27.041,160.251 C26.103,162.377 23.123,166.185 20.419,168.715 L15.501,173.315 L22.826,172.696 C27.201,172.326 31.405,172.514 33.264,173.162 C36.947,174.446 37.214,173.87 34.127,171.295 C32.89,170.262 30.384,169.403 28.559,169.384 L25.241,169.351 L27.458,166.237 C29.355,163.574 30.34,157.98 29.126,156.766 C28.917,156.558 27.979,158.126 27.041,160.251 M75.377,171.52 C71.699,173.542 65.32,173.379 62.69,171.195 C60.794,169.623 56.7,171.008 56.065,173.437 C55.137,176.986 56.305,178.526 59.409,177.844 C61.348,177.418 62.595,177.734 63.533,178.887 C65.258,181.01 68.718,184.469 70.862,186.215 C72.018,187.157 72.339,188.365 71.899,190.12 C71.156,193.078 72.484,194.244 75.859,193.599 C78.968,193.005 79.909,189.125 77.914,185.125 C75.874,181.035 75.976,178.561 78.377,173.851 C79.477,171.693 80.377,169.798 80.377,169.64 C80.377,169.049 78.779,169.65 75.377,171.52 M169.377,171.151 C169.377,171.591 169.785,172.379 170.284,172.901 C170.783,173.423 171.66,175.587 172.233,177.708 C173.052,180.739 172.941,182.399 171.718,185.458 C169.744,190.39 170.56,193.962 173.802,194.581 C177.172,195.226 177.991,194.405 177.93,190.446 C177.887,187.675 178.435,186.73 180.877,185.365 C182.527,184.443 184.042,182.826 184.243,181.77 C184.764,179.032 186.403,178.226 190.127,178.875 C193.071,179.388 193.377,179.208 193.377,176.968 C193.377,172.18 188.847,169.933 184.846,172.735 C182.416,174.437 175.995,173.986 172.793,171.888 C170.151,170.157 169.377,169.99 169.377,171.151 M123.377,191.483 C123.377,195.167 119.572,200.056 115.408,201.722 C110.764,203.58 108.828,206.456 110.33,209.264 C111.91,212.216 113.39,212.184 116.439,209.135 C118.927,206.647 119.53,206.464 121.809,207.502 C123.772,208.396 124.986,208.395 126.96,207.495 C129.279,206.438 129.828,206.622 132.324,209.294 C134.598,211.729 135.377,212.051 136.601,211.061 C139.382,208.813 139.487,206.37 136.912,203.795 C135.568,202.451 133.857,201.351 133.11,201.351 C130.904,201.351 126.464,196.036 125.77,192.565 C125.048,188.958 123.377,188.202 123.377,191.483 M77.377,214.116 C77.377,214.575 77.94,215.513 78.627,216.201 C79.43,217.003 79.877,220.473 79.877,225.896 C79.877,230.542 80.102,234.311 80.377,234.272 C80.652,234.234 82.677,231.919 84.877,229.129 C87.077,226.338 90.365,223.265 92.185,222.298 C94.004,221.331 95.081,220.286 94.577,219.975 C93.237,219.147 87.396,221.024 85.239,222.976 C83.466,224.58 83.377,224.531 83.377,221.94 C83.377,220.444 82.917,218.359 82.354,217.308 C81.245,215.235 77.377,212.755 77.377,214.116 M167.795,215.835 C166.9,217.202 166.102,219.452 166.022,220.835 C165.852,223.782 165.556,223.865 162.595,221.791 C161.266,220.861 158.856,220.356 156.622,220.541 L152.877,220.851 L157.377,222.946 C159.852,224.098 163.798,227.135 166.146,229.695 C170.097,234.001 170.375,234.143 169.87,231.6 C168.96,227.014 169.173,219.016 170.281,216.101 C171.605,212.622 170.012,212.452 167.795,215.835" id="path-1"></path>
    </defs>
    <g id="Page-1" stroke="none" stroke-width="1" fill="none" fill-rule="evenodd">
        <g id="Group" transform="translate(0.7365, 0.338)">
            <mask id="mask-2" fill="white">
                <use xlink:href="#path-1"></use>
            </mask>
            <use id="Shape" fill="#000000" xlink:href="#path-1"></use>
            <rect id="Rectangle" fill="#CB794A" mask="url(#mask-2)" x="0.2635" y="-0.338" width="249" height="249"></rect>
        </g>
    </g>
</svg>