<svg width="368" height="154" viewBox="0 0 368 154" fill="none" xmlns="http://www.w3.org/2000/svg">
<path d="M154.013 142V130.618H156.129L159.689 139.935L163.285 130.618H165.358V142H164.091V133.753C164.091 133.362 164.093 132.984 164.098 132.618C164.108 132.247 164.115 131.915 164.12 131.622L160.531 140.901H158.832L155.25 131.622L155.265 132.464C155.275 132.933 155.28 133.362 155.28 133.753V142H154.013ZM171.386 130.618H173.012L177.501 142H176.051L174.872 138.843H169.518L168.354 142H166.896L171.386 130.618ZM174.447 137.796L173.283 134.734C173.117 134.29 172.978 133.904 172.865 133.577L172.543 132.596C172.44 132.269 172.326 131.922 172.199 131.556C172.086 131.878 171.979 132.203 171.876 132.53C171.876 132.53 171.764 132.876 171.54 133.57C171.54 133.57 171.01 134.979 169.95 137.796H174.447ZM179.45 142V130.618H182.98C185.778 130.618 187.467 131.729 188.048 133.951C188.229 134.654 188.319 135.442 188.319 136.316V136.617C188.319 138.331 187.853 139.654 186.92 140.586C185.978 141.529 184.645 142 182.921 142H179.45ZM180.717 140.85H182.921C184.245 140.85 185.263 140.462 185.976 139.686C186.664 138.938 187.008 137.916 187.008 136.617V136.316C186.979 134.759 186.657 133.621 186.042 132.903C185.397 132.151 184.367 131.775 182.951 131.775H180.717V140.85ZM194.354 137.789C194.203 137.808 193.976 137.818 193.673 137.818H192.011V142H190.744V130.618H193.842C196.098 130.589 197.445 131.302 197.885 132.757C198.021 133.211 198.087 133.714 198.083 134.266C198.043 135.145 197.831 135.86 197.445 136.412C197.06 136.963 196.471 137.356 195.68 137.591L195.988 138.089C196.139 138.323 196.317 138.587 196.522 138.88L198.419 141.355L197.116 142.146C196.867 141.697 196.598 141.246 196.31 140.792L194.904 138.602C194.733 138.333 194.55 138.062 194.354 137.789ZM193.673 136.705C195.197 136.719 196.154 136.277 196.544 135.379C196.681 135.066 196.754 134.7 196.764 134.28C196.779 133.855 196.735 133.487 196.632 133.174C196.535 132.862 196.369 132.601 196.134 132.391C195.661 131.951 194.896 131.736 193.842 131.746H192.011V136.705H193.673ZM200.382 130.618H201.649V142H200.382V130.618ZM204.513 142V130.618H208.043C210.841 130.618 212.531 131.729 213.112 133.951C213.292 134.654 213.383 135.442 213.383 136.316V136.617C213.383 138.331 212.917 139.654 211.984 140.586C211.042 141.529 209.708 142 207.985 142H204.513ZM205.78 140.85H207.985C209.308 140.85 210.326 140.462 211.039 139.686C211.728 138.938 212.072 137.916 212.072 136.617V136.316C212.042 134.759 211.72 133.621 211.105 132.903C210.46 132.151 209.43 131.775 208.014 131.775H205.78V140.85Z" fill="#BC6737"/>
<path d="M57.3588 76.765C54.9108 76.765 52.5478 76.357 50.2698 75.541C48.0258 74.725 46.0368 73.569 44.3028 72.073C42.5688 70.577 41.1918 68.775 40.1718 66.667C39.1858 64.559 38.6928 62.213 38.6928 59.629C38.6928 57.215 39.2028 54.954 40.2228 52.846C41.2428 50.704 42.6538 48.851 44.4558 47.287C46.2918 45.689 48.4168 44.448 50.8308 43.564C53.2448 42.646 55.8628 42.187 58.6848 42.187C59.9428 42.187 61.0648 42.255 62.0508 42.391C63.0368 42.493 63.9888 42.646 64.9068 42.85C65.8248 43.054 66.8108 43.326 67.8648 43.666C68.3068 43.802 68.6298 43.989 68.8338 44.227C69.0718 44.465 69.2078 44.822 69.2418 45.298C69.3438 46.182 69.4288 47.1 69.4968 48.052C69.5988 49.004 69.6668 50.058 69.7008 51.214C69.7008 51.52 69.5648 51.741 69.2928 51.877C69.0548 52.013 68.7828 52.047 68.4768 51.979C68.1708 51.877 67.9668 51.639 67.8648 51.265C67.5588 50.143 67.2018 49.14 66.7938 48.256C66.3858 47.372 65.7908 46.641 65.0088 46.063C64.2268 45.451 63.2238 44.975 61.9998 44.635C60.8098 44.295 59.4668 44.125 57.9708 44.125C56.0668 44.125 54.3158 44.516 52.7178 45.298C51.1198 46.08 49.7598 47.151 48.6378 48.511C47.5158 49.837 46.6318 51.35 45.9858 53.05C45.3738 54.75 45.0678 56.518 45.0678 58.354C45.0678 60.496 45.3568 62.553 45.9348 64.525C46.5468 66.497 47.4138 68.248 48.5358 69.778C49.6918 71.308 51.0858 72.532 52.7178 73.45C54.3498 74.334 56.1858 74.776 58.2258 74.776C60.6738 74.776 62.6968 74.232 64.2948 73.144C65.8928 72.022 67.2358 70.424 68.3238 68.35C68.5618 67.874 68.9188 67.636 69.3948 67.636C69.8708 67.636 70.1088 67.908 70.1088 68.452C70.1088 68.792 70.0408 69.268 69.9048 69.88C69.8028 70.458 69.6498 71.104 69.4458 71.818C69.2418 72.498 69.0378 73.127 68.8338 73.705C68.6298 74.147 68.4428 74.453 68.2728 74.623C68.1028 74.793 67.7798 74.963 67.3038 75.133C66.0118 75.677 64.4818 76.085 62.7138 76.357C60.9798 76.629 59.1948 76.765 57.3588 76.765ZM92.0368 76.714C89.7588 76.714 87.5828 76.323 85.5088 75.541C83.4688 74.725 81.6498 73.586 80.0518 72.124C78.4538 70.628 77.1788 68.86 76.2268 66.82C75.3088 64.746 74.8498 62.451 74.8498 59.935C74.8498 57.623 75.2238 55.413 75.9718 53.305C76.7538 51.163 77.8758 49.259 79.3378 47.593C80.8338 45.927 82.6868 44.601 84.8968 43.615C87.1068 42.629 89.6398 42.136 92.4958 42.136C94.8078 42.136 96.9838 42.544 99.0238 43.36C101.098 44.142 102.934 45.281 104.532 46.777C106.13 48.239 107.388 50.007 108.306 52.081C109.258 54.121 109.734 56.399 109.734 58.915C109.734 61.193 109.343 63.403 108.561 65.545C107.813 67.687 106.691 69.591 105.195 71.257C103.733 72.923 101.897 74.249 99.6868 75.235C97.4768 76.221 94.9268 76.714 92.0368 76.714ZM92.8528 74.572C95.2328 74.572 97.2048 74.028 98.7688 72.94C100.367 71.818 101.557 70.271 102.339 68.299C103.155 66.327 103.563 64.049 103.563 61.465C103.563 59.187 103.308 57.028 102.798 54.988C102.322 52.948 101.591 51.129 100.605 49.531C99.6188 47.899 98.3778 46.641 96.8818 45.757C95.3858 44.839 93.6348 44.38 91.6288 44.38C89.3168 44.38 87.3618 44.924 85.7638 46.012C84.1998 47.1 83.0098 48.613 82.1938 50.551C81.4118 52.489 81.0208 54.75 81.0208 57.334C81.0208 59.646 81.2588 61.822 81.7348 63.862C82.2108 65.902 82.9418 67.738 83.9278 69.37C84.9138 70.968 86.1378 72.243 87.5998 73.195C89.0958 74.113 90.8468 74.572 92.8528 74.572ZM145.98 76.918C145.64 76.918 144.994 76.646 144.042 76.102C143.124 75.592 142.223 74.742 141.339 73.552C140.965 73.144 140.387 72.498 139.605 71.614C138.857 70.696 137.956 69.642 136.902 68.452C135.882 67.262 134.777 65.987 133.587 64.627C132.431 63.267 131.258 61.924 130.068 60.598C128.912 59.238 127.807 57.963 126.753 56.773C125.733 55.583 124.815 54.529 123.999 53.611C123.217 52.693 122.622 52.03 122.214 51.622C122.044 51.384 121.874 51.197 121.704 51.061C121.568 50.925 121.432 50.857 121.296 50.857C121.16 50.857 121.058 50.993 120.99 51.265C120.922 51.503 120.888 51.724 120.888 51.928C120.854 53.56 120.837 55.447 120.837 57.589C120.837 59.731 120.82 61.941 120.786 64.219C120.786 66.463 120.786 68.571 120.786 70.543C120.786 71.529 121.058 72.396 121.602 73.144C122.146 73.858 123.064 74.351 124.356 74.623C124.832 74.725 125.206 74.844 125.478 74.98C125.784 75.116 125.937 75.32 125.937 75.592C125.937 75.796 125.801 75.949 125.529 76.051C125.257 76.153 124.917 76.204 124.509 76.204C123.591 76.204 122.877 76.17 122.367 76.102C121.891 76.068 121.449 76.034 121.041 76C120.633 76 120.089 76 119.409 76C118.763 76 118.202 76.017 117.726 76.051C117.284 76.085 116.842 76.119 116.4 76.153C115.958 76.187 115.414 76.204 114.768 76.204C114.394 76.204 114.054 76.153 113.748 76.051C113.476 75.983 113.34 75.83 113.34 75.592C113.34 75.354 113.476 75.167 113.748 75.031C114.02 74.861 114.411 74.708 114.921 74.572C115.839 74.3 116.519 73.807 116.961 73.093C117.403 72.345 117.658 71.461 117.726 70.441C117.862 69.149 117.998 67.449 118.134 65.341C118.304 63.233 118.44 60.87 118.542 58.252C118.644 55.634 118.695 52.931 118.695 50.143C118.695 48.341 118.236 47.049 117.318 46.267C116.4 45.485 115.227 44.856 113.799 44.38C113.629 44.312 113.323 44.176 112.881 43.972C112.473 43.768 112.269 43.513 112.269 43.207C112.269 42.901 112.422 42.697 112.728 42.595C113.034 42.493 113.289 42.442 113.493 42.442C114.377 42.476 115.142 42.51 115.788 42.544C116.468 42.544 117.114 42.561 117.726 42.595C118.338 42.629 118.984 42.663 119.664 42.697C120.344 42.697 121.143 42.697 122.061 42.697C122.367 42.697 122.605 42.782 122.775 42.952C122.945 43.088 123.098 43.258 123.234 43.462C123.608 43.904 124.186 44.601 124.968 45.553C125.784 46.505 126.719 47.627 127.773 48.919C128.861 50.211 130.017 51.588 131.241 53.05C132.465 54.478 133.689 55.923 134.913 57.385C136.137 58.847 137.293 60.224 138.381 61.516C139.469 62.808 140.404 63.93 141.186 64.882C142.002 65.8 142.58 66.463 142.92 66.871C143.056 67.007 143.226 67.194 143.43 67.432C143.668 67.67 143.872 67.789 144.042 67.789C144.348 67.789 144.518 67.466 144.552 66.82C144.552 66.14 144.552 65.12 144.552 63.76C144.552 62.4 144.552 60.819 144.552 59.017C144.586 57.215 144.603 55.328 144.603 53.356C144.603 51.35 144.586 49.361 144.552 47.389C144.518 46.641 144.161 46.012 143.481 45.502C142.801 44.958 142.07 44.601 141.288 44.431C140.812 44.363 140.37 44.244 139.962 44.074C139.554 43.904 139.35 43.683 139.35 43.411C139.35 43.207 139.554 43.054 139.962 42.952C140.37 42.85 140.761 42.799 141.135 42.799C141.645 42.799 142.087 42.799 142.461 42.799C142.869 42.799 143.26 42.799 143.634 42.799C144.008 42.799 144.382 42.799 144.756 42.799C145.538 42.799 146.167 42.799 146.643 42.799C147.119 42.765 147.629 42.731 148.173 42.697C148.751 42.663 149.533 42.646 150.519 42.646C150.927 42.646 151.25 42.697 151.488 42.799C151.76 42.901 151.896 43.071 151.896 43.309C151.896 43.785 151.369 44.125 150.315 44.329C149.091 44.567 148.258 44.89 147.816 45.298C147.374 45.672 147.136 46.301 147.102 47.185C147.102 47.729 147.085 48.63 147.051 49.888C147.017 51.112 146.983 52.557 146.949 54.223C146.949 55.889 146.932 57.64 146.898 59.476C146.864 61.312 146.847 63.114 146.847 64.882C146.847 66.65 146.847 68.248 146.847 69.676C146.847 70.492 146.881 71.291 146.949 72.073C147.017 72.821 147.068 73.484 147.102 74.062C147.17 74.606 147.204 75.014 147.204 75.286C147.204 75.932 147.085 76.357 146.847 76.561C146.609 76.799 146.32 76.918 145.98 76.918ZM163.058 76.765C161.63 76.765 160.287 76.561 159.029 76.153C157.771 75.779 156.615 75.201 155.561 74.419C155.425 74.283 155.272 74.13 155.102 73.96C154.966 73.756 154.864 73.552 154.796 73.348C154.558 72.566 154.388 71.597 154.286 70.441C154.218 69.251 154.167 68.197 154.133 67.279C154.133 67.041 154.235 66.871 154.439 66.769C154.643 66.633 154.881 66.565 155.153 66.565C155.391 66.565 155.578 66.616 155.714 66.718C155.884 66.786 156.003 66.939 156.071 67.177C156.785 69.761 157.839 71.699 159.233 72.991C160.627 74.249 162.14 74.878 163.772 74.878C164.928 74.878 165.914 74.623 166.73 74.113C167.58 73.603 168.243 72.923 168.719 72.073C169.195 71.189 169.433 70.203 169.433 69.115C169.433 67.823 169.212 66.769 168.77 65.953C168.328 65.137 167.682 64.406 166.832 63.76C165.982 63.114 164.928 62.417 163.67 61.669C162.31 60.853 160.967 60.003 159.641 59.119C158.349 58.235 157.278 57.198 156.428 56.008C155.578 54.818 155.153 53.356 155.153 51.622C155.153 49.786 155.578 48.171 156.428 46.777C157.312 45.349 158.587 44.227 160.253 43.411C161.919 42.561 163.925 42.136 166.271 42.136C167.495 42.136 168.6 42.272 169.586 42.544C170.606 42.782 171.422 43.037 172.034 43.309C172.34 43.411 172.578 43.581 172.748 43.819C172.952 44.057 173.105 44.346 173.207 44.686C173.377 45.4 173.564 46.233 173.768 47.185C173.972 48.137 174.074 49.106 174.074 50.092C174.074 50.466 173.802 50.653 173.258 50.653C172.952 50.653 172.663 50.585 172.391 50.449C172.119 50.313 171.949 50.143 171.881 49.939C171.201 48.035 170.351 46.59 169.331 45.604C168.345 44.618 167.087 44.125 165.557 44.125C164.537 44.125 163.602 44.312 162.752 44.686C161.936 45.026 161.273 45.604 160.763 46.42C160.287 47.202 160.049 48.239 160.049 49.531C160.049 50.449 160.355 51.316 160.967 52.132C161.613 52.914 162.463 53.679 163.517 54.427C164.605 55.141 165.812 55.889 167.138 56.671C168.532 57.521 169.79 58.405 170.912 59.323C172.034 60.241 172.918 61.295 173.564 62.485C174.21 63.641 174.533 65.035 174.533 66.667C174.533 68.809 174.057 70.645 173.105 72.175C172.153 73.671 170.81 74.81 169.076 75.592C167.376 76.374 165.37 76.765 163.058 76.765ZM197.31 76.765C194.862 76.765 192.499 76.357 190.221 75.541C187.977 74.725 185.988 73.569 184.254 72.073C182.52 70.577 181.143 68.775 180.123 66.667C179.137 64.559 178.644 62.213 178.644 59.629C178.644 57.215 179.154 54.954 180.174 52.846C181.194 50.704 182.605 48.851 184.407 47.287C186.243 45.689 188.368 44.448 190.782 43.564C193.196 42.646 195.814 42.187 198.636 42.187C199.894 42.187 201.016 42.255 202.002 42.391C202.988 42.493 203.94 42.646 204.858 42.85C205.776 43.054 206.762 43.326 207.816 43.666C208.258 43.802 208.581 43.989 208.785 44.227C209.023 44.465 209.159 44.822 209.193 45.298C209.295 46.182 209.38 47.1 209.448 48.052C209.55 49.004 209.618 50.058 209.652 51.214C209.652 51.52 209.516 51.741 209.244 51.877C209.006 52.013 208.734 52.047 208.428 51.979C208.122 51.877 207.918 51.639 207.816 51.265C207.51 50.143 207.153 49.14 206.745 48.256C206.337 47.372 205.742 46.641 204.96 46.063C204.178 45.451 203.175 44.975 201.951 44.635C200.761 44.295 199.418 44.125 197.922 44.125C196.018 44.125 194.267 44.516 192.669 45.298C191.071 46.08 189.711 47.151 188.589 48.511C187.467 49.837 186.583 51.35 185.937 53.05C185.325 54.75 185.019 56.518 185.019 58.354C185.019 60.496 185.308 62.553 185.886 64.525C186.498 66.497 187.365 68.248 188.487 69.778C189.643 71.308 191.037 72.532 192.669 73.45C194.301 74.334 196.137 74.776 198.177 74.776C200.625 74.776 202.648 74.232 204.246 73.144C205.844 72.022 207.187 70.424 208.275 68.35C208.513 67.874 208.87 67.636 209.346 67.636C209.822 67.636 210.06 67.908 210.06 68.452C210.06 68.792 209.992 69.268 209.856 69.88C209.754 70.458 209.601 71.104 209.397 71.818C209.193 72.498 208.989 73.127 208.785 73.705C208.581 74.147 208.394 74.453 208.224 74.623C208.054 74.793 207.731 74.963 207.255 75.133C205.963 75.677 204.433 76.085 202.665 76.357C200.931 76.629 199.146 76.765 197.31 76.765ZM215.056 76.204C214.682 76.204 214.359 76.153 214.087 76.051C213.849 75.983 213.73 75.83 213.73 75.592C213.73 75.15 214.223 74.827 215.209 74.623C216.501 74.385 217.453 74.011 218.065 73.501C218.677 72.991 218.983 72.158 218.983 71.002V47.95C218.983 46.794 218.745 45.978 218.269 45.502C217.793 44.992 216.909 44.601 215.617 44.329C214.631 44.125 214.138 43.785 214.138 43.309C214.138 43.071 214.257 42.901 214.495 42.799C214.733 42.697 215.039 42.646 215.413 42.646C216.297 42.646 217.079 42.663 217.759 42.697C218.473 42.731 219.153 42.765 219.799 42.799C220.445 42.833 221.142 42.85 221.89 42.85C222.604 42.85 223.267 42.85 223.879 42.85C224.525 42.816 225.171 42.782 225.817 42.748C226.497 42.714 227.262 42.697 228.112 42.697C228.52 42.697 228.843 42.748 229.081 42.85C229.319 42.918 229.438 43.071 229.438 43.309C229.438 43.581 229.302 43.802 229.03 43.972C228.792 44.108 228.435 44.227 227.959 44.329C226.633 44.635 225.698 45.026 225.154 45.502C224.644 45.978 224.389 46.794 224.389 47.95V71.002C224.389 72.124 224.712 72.94 225.358 73.45C226.004 73.96 226.956 74.351 228.214 74.623C228.724 74.725 229.098 74.844 229.336 74.98C229.574 75.116 229.693 75.32 229.693 75.592C229.693 75.796 229.574 75.949 229.336 76.051C229.132 76.153 228.826 76.204 228.418 76.204C227.568 76.204 226.786 76.17 226.072 76.102C225.358 76.068 224.661 76.034 223.981 76C223.335 75.966 222.638 75.949 221.89 75.949C221.074 75.949 220.309 75.966 219.595 76C218.915 76.034 218.201 76.068 217.453 76.102C216.705 76.17 215.906 76.204 215.056 76.204ZM249.718 76.714C247.44 76.714 245.264 76.323 243.19 75.541C241.15 74.725 239.331 73.586 237.733 72.124C236.135 70.628 234.86 68.86 233.908 66.82C232.99 64.746 232.531 62.451 232.531 59.935C232.531 57.623 232.905 55.413 233.653 53.305C234.435 51.163 235.557 49.259 237.019 47.593C238.515 45.927 240.368 44.601 242.578 43.615C244.788 42.629 247.321 42.136 250.177 42.136C252.489 42.136 254.665 42.544 256.705 43.36C258.779 44.142 260.615 45.281 262.213 46.777C263.811 48.239 265.069 50.007 265.987 52.081C266.939 54.121 267.415 56.399 267.415 58.915C267.415 61.193 267.024 63.403 266.242 65.545C265.494 67.687 264.372 69.591 262.876 71.257C261.414 72.923 259.578 74.249 257.368 75.235C255.158 76.221 252.608 76.714 249.718 76.714ZM250.534 74.572C252.914 74.572 254.886 74.028 256.45 72.94C258.048 71.818 259.238 70.271 260.02 68.299C260.836 66.327 261.244 64.049 261.244 61.465C261.244 59.187 260.989 57.028 260.479 54.988C260.003 52.948 259.272 51.129 258.286 49.531C257.3 47.899 256.059 46.641 254.563 45.757C253.067 44.839 251.316 44.38 249.31 44.38C246.998 44.38 245.043 44.924 243.445 46.012C241.881 47.1 240.691 48.613 239.875 50.551C239.093 52.489 238.702 54.75 238.702 57.334C238.702 59.646 238.94 61.822 239.416 63.862C239.892 65.902 240.623 67.738 241.609 69.37C242.595 70.968 243.819 72.243 245.281 73.195C246.777 74.113 248.528 74.572 250.534 74.572ZM288.362 76.714C285.302 76.714 282.735 76.17 280.661 75.082C278.587 73.994 277.023 72.464 275.969 70.492C274.915 68.486 274.388 66.157 274.388 63.505V48.256C274.388 47.134 274.15 46.25 273.674 45.604C273.232 44.958 272.671 44.567 271.991 44.431C270.903 44.125 270.359 43.751 270.359 43.309C270.359 43.071 270.495 42.901 270.767 42.799C271.039 42.697 271.379 42.646 271.787 42.646C272.671 42.646 273.572 42.68 274.49 42.748C275.408 42.816 276.343 42.85 277.295 42.85C278.145 42.85 279.029 42.833 279.947 42.799C280.865 42.731 281.681 42.697 282.395 42.697C282.837 42.697 283.177 42.748 283.415 42.85C283.687 42.952 283.823 43.122 283.823 43.36C283.823 43.632 283.636 43.853 283.262 44.023C282.922 44.159 282.463 44.329 281.885 44.533C281.443 44.703 280.984 45.111 280.508 45.757C280.066 46.369 279.845 47.219 279.845 48.307V62.281C279.845 64.865 280.27 66.99 281.12 68.656C281.97 70.322 283.143 71.546 284.639 72.328C286.135 73.11 287.818 73.501 289.688 73.501C293.054 73.501 295.519 72.396 297.083 70.186C298.681 67.942 299.48 64.865 299.48 60.955C299.48 60.173 299.48 59.187 299.48 57.997C299.48 56.807 299.463 55.549 299.429 54.223C299.429 52.897 299.412 51.639 299.378 50.449C299.344 49.327 299.242 48.375 299.072 47.593C298.936 46.777 298.698 46.097 298.358 45.553C298.018 45.009 297.576 44.652 297.032 44.482C296.692 44.346 296.301 44.193 295.859 44.023C295.451 43.853 295.247 43.632 295.247 43.36C295.247 43.156 295.383 43.003 295.655 42.901C295.927 42.799 296.284 42.748 296.726 42.748C297.678 42.748 298.426 42.765 298.97 42.799C299.514 42.833 300.177 42.85 300.959 42.85C301.537 42.85 302.047 42.833 302.489 42.799C302.965 42.765 303.424 42.731 303.866 42.697C304.308 42.663 304.767 42.646 305.243 42.646C305.651 42.646 305.991 42.697 306.263 42.799C306.535 42.901 306.671 43.071 306.671 43.309C306.671 43.751 306.144 44.091 305.09 44.329C304.104 44.567 303.407 45.026 302.999 45.706C302.625 46.386 302.404 47.287 302.336 48.409C302.166 51.197 302.064 53.764 302.03 56.11C301.996 58.422 301.945 60.734 301.877 63.046C301.843 65.698 301.214 68.061 299.99 70.135C298.8 72.209 297.202 73.824 295.196 74.98C293.19 76.136 290.912 76.714 288.362 76.714ZM317.801 76.765C316.373 76.765 315.03 76.561 313.772 76.153C312.514 75.779 311.358 75.201 310.304 74.419C310.168 74.283 310.015 74.13 309.845 73.96C309.709 73.756 309.607 73.552 309.539 73.348C309.301 72.566 309.131 71.597 309.029 70.441C308.961 69.251 308.91 68.197 308.876 67.279C308.876 67.041 308.978 66.871 309.182 66.769C309.386 66.633 309.624 66.565 309.896 66.565C310.134 66.565 310.321 66.616 310.457 66.718C310.627 66.786 310.746 66.939 310.814 67.177C311.528 69.761 312.582 71.699 313.976 72.991C315.37 74.249 316.883 74.878 318.515 74.878C319.671 74.878 320.657 74.623 321.473 74.113C322.323 73.603 322.986 72.923 323.462 72.073C323.938 71.189 324.176 70.203 324.176 69.115C324.176 67.823 323.955 66.769 323.513 65.953C323.071 65.137 322.425 64.406 321.575 63.76C320.725 63.114 319.671 62.417 318.413 61.669C317.053 60.853 315.71 60.003 314.384 59.119C313.092 58.235 312.021 57.198 311.171 56.008C310.321 54.818 309.896 53.356 309.896 51.622C309.896 49.786 310.321 48.171 311.171 46.777C312.055 45.349 313.33 44.227 314.996 43.411C316.662 42.561 318.668 42.136 321.014 42.136C322.238 42.136 323.343 42.272 324.329 42.544C325.349 42.782 326.165 43.037 326.777 43.309C327.083 43.411 327.321 43.581 327.491 43.819C327.695 44.057 327.848 44.346 327.95 44.686C328.12 45.4 328.307 46.233 328.511 47.185C328.715 48.137 328.817 49.106 328.817 50.092C328.817 50.466 328.545 50.653 328.001 50.653C327.695 50.653 327.406 50.585 327.134 50.449C326.862 50.313 326.692 50.143 326.624 49.939C325.944 48.035 325.094 46.59 324.074 45.604C323.088 44.618 321.83 44.125 320.3 44.125C319.28 44.125 318.345 44.312 317.495 44.686C316.679 45.026 316.016 45.604 315.506 46.42C315.03 47.202 314.792 48.239 314.792 49.531C314.792 50.449 315.098 51.316 315.71 52.132C316.356 52.914 317.206 53.679 318.26 54.427C319.348 55.141 320.555 55.889 321.881 56.671C323.275 57.521 324.533 58.405 325.655 59.323C326.777 60.241 327.661 61.295 328.307 62.485C328.953 63.641 329.276 65.035 329.276 66.667C329.276 68.809 328.8 70.645 327.848 72.175C326.896 73.671 325.553 74.81 323.819 75.592C322.119 76.374 320.113 76.765 317.801 76.765Z" fill="white"/>
<path d="M81.6614 116.57C79.8374 116.57 78.0767 116.266 76.3794 115.658C74.7074 115.05 73.2254 114.189 71.9334 113.074C70.6414 111.959 69.6154 110.617 68.8554 109.046C68.1207 107.475 67.7534 105.727 67.7534 103.802C67.7534 102.003 68.1334 100.319 68.8934 98.748C69.6534 97.152 70.7047 95.7713 72.0474 94.606C73.4154 93.4153 74.9987 92.4907 76.7974 91.832C78.5961 91.148 80.5467 90.806 82.6494 90.806C83.5867 90.806 84.4227 90.8567 85.1574 90.958C85.8921 91.034 86.6014 91.148 87.2854 91.3C87.9694 91.452 88.7041 91.6547 89.4894 91.908C89.8187 92.0093 90.0594 92.1487 90.2114 92.326C90.3887 92.5033 90.4901 92.7693 90.5154 93.124C90.5914 93.7827 90.6547 94.4667 90.7054 95.176C90.7814 95.8853 90.8321 96.6707 90.8574 97.532C90.8574 97.76 90.7561 97.9247 90.5534 98.026C90.3761 98.1273 90.1734 98.1527 89.9454 98.102C89.7174 98.026 89.5654 97.8487 89.4894 97.57C89.2614 96.734 88.9954 95.9867 88.6914 95.328C88.3874 94.6693 87.9441 94.1247 87.3614 93.694C86.7787 93.238 86.0314 92.8833 85.1194 92.63C84.2327 92.3767 83.2321 92.25 82.1174 92.25C80.6987 92.25 79.3941 92.5413 78.2034 93.124C77.0127 93.7067 75.9994 94.5047 75.1634 95.518C74.3274 96.506 73.6687 97.6333 73.1874 98.9C72.7314 100.167 72.5034 101.484 72.5034 102.852C72.5034 104.448 72.7187 105.981 73.1494 107.45C73.6054 108.919 74.2514 110.224 75.0874 111.364C75.9487 112.504 76.9874 113.416 78.2034 114.1C79.4194 114.759 80.7874 115.088 82.3074 115.088C84.1314 115.088 85.6387 114.683 86.8294 113.872C88.0201 113.036 89.0207 111.845 89.8314 110.3C90.0087 109.945 90.2747 109.768 90.6294 109.768C90.9841 109.768 91.1614 109.971 91.1614 110.376C91.1614 110.629 91.1107 110.984 91.0094 111.44C90.9334 111.871 90.8194 112.352 90.6674 112.884C90.5154 113.391 90.3634 113.859 90.2114 114.29C90.0594 114.619 89.9201 114.847 89.7934 114.974C89.6667 115.101 89.4261 115.227 89.0714 115.354C88.1087 115.759 86.9687 116.063 85.6514 116.266C84.3594 116.469 83.0294 116.57 81.6614 116.57ZM107.5 116.532C105.803 116.532 104.181 116.241 102.636 115.658C101.116 115.05 99.7606 114.201 98.5699 113.112C97.3792 111.997 96.4292 110.68 95.7199 109.16C95.0359 107.615 94.6939 105.905 94.6939 104.03C94.6939 102.307 94.9726 100.661 95.5299 99.09C96.1126 97.494 96.9486 96.0753 98.0379 94.834C99.1526 93.5927 100.533 92.6047 102.18 91.87C103.827 91.1353 105.714 90.768 107.842 90.768C109.565 90.768 111.186 91.072 112.706 91.68C114.251 92.2627 115.619 93.1113 116.81 94.226C118.001 95.3153 118.938 96.6327 119.622 98.178C120.331 99.698 120.686 101.395 120.686 103.27C120.686 104.967 120.395 106.614 119.812 108.21C119.255 109.806 118.419 111.225 117.304 112.466C116.215 113.707 114.847 114.695 113.2 115.43C111.553 116.165 109.653 116.532 107.5 116.532ZM108.108 114.936C109.881 114.936 111.351 114.531 112.516 113.72C113.707 112.884 114.593 111.731 115.176 110.262C115.784 108.793 116.088 107.095 116.088 105.17C116.088 103.473 115.898 101.864 115.518 100.344C115.163 98.824 114.619 97.4687 113.884 96.278C113.149 95.062 112.225 94.1247 111.11 93.466C109.995 92.782 108.691 92.44 107.196 92.44C105.473 92.44 104.017 92.8453 102.826 93.656C101.661 94.4667 100.774 95.594 100.166 97.038C99.5832 98.482 99.2919 100.167 99.2919 102.092C99.2919 103.815 99.4692 105.436 99.8239 106.956C100.179 108.476 100.723 109.844 101.458 111.06C102.193 112.251 103.105 113.201 104.194 113.91C105.309 114.594 106.613 114.936 108.108 114.936ZM124.057 116.19C123.779 116.19 123.551 116.139 123.373 116.038C123.196 115.937 123.107 115.823 123.107 115.696C123.107 115.493 123.209 115.341 123.411 115.24C123.614 115.113 123.779 115.037 123.905 115.012C124.868 114.784 125.577 114.493 126.033 114.138C126.515 113.783 126.755 113.188 126.755 112.352V94.834C126.755 94.226 126.692 93.7827 126.565 93.504C126.439 93.2 126.198 92.972 125.843 92.82C125.514 92.668 125.033 92.5287 124.399 92.402C123.665 92.25 123.297 91.9967 123.297 91.642C123.297 91.4647 123.386 91.338 123.563 91.262C123.766 91.186 124.007 91.148 124.285 91.148C124.919 91.148 125.489 91.1607 125.995 91.186C126.502 91.2113 126.983 91.2367 127.439 91.262C127.895 91.2873 128.402 91.3 128.959 91.3C129.542 91.3 130.099 91.3 130.631 91.3C131.163 91.2747 131.708 91.2493 132.265 91.224C132.823 91.1987 133.418 91.186 134.051 91.186C134.355 91.186 134.583 91.224 134.735 91.3C134.913 91.3507 135.001 91.4647 135.001 91.642C135.001 91.8447 134.913 92.0093 134.735 92.136C134.558 92.2373 134.279 92.326 133.899 92.402C132.937 92.63 132.177 92.8833 131.619 93.162C131.062 93.4153 130.783 93.9093 130.783 94.644V112.238C130.783 113.023 130.948 113.593 131.277 113.948C131.632 114.277 132.341 114.442 133.405 114.442H137.813C138.472 114.442 139.042 114.341 139.523 114.138C140.03 113.935 140.423 113.707 140.701 113.454C141.183 113.023 141.55 112.618 141.803 112.238C142.082 111.833 142.373 111.301 142.677 110.642C142.804 110.363 142.943 110.097 143.095 109.844C143.247 109.591 143.412 109.464 143.589 109.464C143.767 109.464 143.893 109.553 143.969 109.73C144.045 109.882 144.083 110.034 144.083 110.186C144.083 110.237 144.071 110.3 144.045 110.376C144.02 110.452 144.007 110.528 144.007 110.604C143.83 111.288 143.665 111.896 143.513 112.428C143.361 112.96 143.235 113.467 143.133 113.948C143.057 114.429 142.994 114.949 142.943 115.506C142.918 115.683 142.867 115.848 142.791 116C142.715 116.127 142.576 116.19 142.373 116.19C141.385 116.19 140.334 116.177 139.219 116.152C138.105 116.127 136.977 116.101 135.837 116.076C134.697 116.076 133.57 116.063 132.455 116.038C131.366 116.013 130.315 116 129.301 116C128.693 116 128.009 116.013 127.249 116.038C126.515 116.063 125.831 116.089 125.197 116.114C124.589 116.165 124.209 116.19 124.057 116.19ZM146.286 116.19C146.007 116.19 145.779 116.139 145.602 116.038C145.424 115.937 145.336 115.823 145.336 115.696C145.336 115.493 145.437 115.341 145.64 115.24C145.842 115.113 146.007 115.037 146.134 115.012C147.096 114.784 147.806 114.493 148.262 114.138C148.743 113.783 148.984 113.188 148.984 112.352V94.834C148.984 94.226 148.92 93.7827 148.794 93.504C148.667 93.2 148.426 92.972 148.072 92.82C147.742 92.668 147.261 92.5287 146.628 92.402C145.893 92.25 145.526 91.9967 145.526 91.642C145.526 91.4647 145.614 91.338 145.792 91.262C145.994 91.186 146.235 91.148 146.514 91.148C147.147 91.148 147.717 91.1607 148.224 91.186C148.73 91.2113 149.212 91.2367 149.668 91.262C150.124 91.2873 150.63 91.3 151.188 91.3C151.77 91.3 152.328 91.3 152.86 91.3C153.392 91.2747 153.936 91.2493 154.494 91.224C155.051 91.1987 155.646 91.186 156.28 91.186C156.584 91.186 156.812 91.224 156.964 91.3C157.141 91.3507 157.23 91.4647 157.23 91.642C157.23 91.8447 157.141 92.0093 156.964 92.136C156.786 92.2373 156.508 92.326 156.128 92.402C155.165 92.63 154.405 92.8833 153.848 93.162C153.29 93.4153 153.012 93.9093 153.012 94.644V112.238C153.012 113.023 153.176 113.593 153.506 113.948C153.86 114.277 154.57 114.442 155.634 114.442H160.042C160.7 114.442 161.27 114.341 161.752 114.138C162.258 113.935 162.651 113.707 162.93 113.454C163.411 113.023 163.778 112.618 164.032 112.238C164.31 111.833 164.602 111.301 164.906 110.642C165.032 110.363 165.172 110.097 165.324 109.844C165.476 109.591 165.64 109.464 165.818 109.464C165.995 109.464 166.122 109.553 166.198 109.73C166.274 109.882 166.312 110.034 166.312 110.186C166.312 110.237 166.299 110.3 166.274 110.376C166.248 110.452 166.236 110.528 166.236 110.604C166.058 111.288 165.894 111.896 165.742 112.428C165.59 112.96 165.463 113.467 165.362 113.948C165.286 114.429 165.222 114.949 165.172 115.506C165.146 115.683 165.096 115.848 165.02 116C164.944 116.127 164.804 116.19 164.602 116.19C163.614 116.19 162.562 116.177 161.448 116.152C160.333 116.127 159.206 116.101 158.066 116.076C156.926 116.076 155.798 116.063 154.684 116.038C153.594 116.013 152.543 116 151.53 116C150.922 116 150.238 116.013 149.478 116.038C148.743 116.063 148.059 116.089 147.426 116.114C146.818 116.165 146.438 116.19 146.286 116.19ZM168.78 116.19C168.476 116.19 168.236 116.152 168.058 116.076C167.881 116 167.792 115.886 167.792 115.734C167.792 115.405 168.16 115.164 168.894 115.012C169.832 114.809 170.503 114.531 170.908 114.176C171.339 113.796 171.554 113.163 171.554 112.276V95.1C171.554 94.2387 171.377 93.618 171.022 93.238C170.668 92.858 170.022 92.5793 169.084 92.402C168.704 92.326 168.426 92.2247 168.248 92.098C168.071 91.9713 167.982 91.8193 167.982 91.642C167.982 91.49 168.071 91.376 168.248 91.3C168.426 91.1987 168.666 91.148 168.97 91.148C169.806 91.148 170.554 91.1607 171.212 91.186C171.896 91.2113 172.555 91.2367 173.188 91.262C173.847 91.2873 174.556 91.3 175.316 91.3C176.33 91.3 177.394 91.3 178.508 91.3C179.648 91.2747 180.674 91.2493 181.586 91.224C182.448 91.224 183.157 91.2113 183.714 91.186C184.297 91.1353 184.639 91.11 184.74 91.11C184.892 91.11 185.044 91.148 185.196 91.224C185.374 91.2747 185.475 91.3887 185.5 91.566C185.627 92.3513 185.754 93.124 185.88 93.884C186.032 94.6187 186.108 95.2647 186.108 95.822C186.108 96.0753 186.045 96.2527 185.918 96.354C185.817 96.43 185.703 96.468 185.576 96.468C185.45 96.468 185.348 96.43 185.272 96.354C185.196 96.278 185.12 96.164 185.044 96.012C184.867 95.5053 184.702 95.0493 184.55 94.644C184.398 94.2133 184.221 93.8967 184.018 93.694C183.689 93.3393 183.309 93.0733 182.878 92.896C182.448 92.7187 181.966 92.63 181.434 92.63H177.178C176.849 92.63 176.494 92.7567 176.114 93.01C175.76 93.238 175.582 93.5673 175.582 93.998V101.75C175.582 102.003 175.658 102.206 175.81 102.358C175.962 102.51 176.14 102.586 176.342 102.586H179.952C180.687 102.586 181.194 102.421 181.472 102.092C181.751 101.763 181.979 101.256 182.156 100.572C182.334 100.065 182.574 99.812 182.878 99.812C183.005 99.812 183.119 99.8753 183.22 100.002C183.322 100.103 183.372 100.268 183.372 100.496C183.372 100.648 183.36 100.901 183.334 101.256C183.309 101.611 183.284 101.978 183.258 102.358C183.233 102.738 183.22 103.042 183.22 103.27C183.22 103.549 183.22 103.891 183.22 104.296C183.246 104.676 183.271 105.056 183.296 105.436C183.322 105.816 183.334 106.095 183.334 106.272C183.36 106.5 183.334 106.69 183.258 106.842C183.208 106.969 183.119 107.032 182.992 107.032C182.587 107.032 182.283 106.665 182.08 105.93C181.928 105.271 181.713 104.777 181.434 104.448C181.181 104.119 180.801 103.954 180.294 103.954H176.76C176.355 103.954 176.051 104.017 175.848 104.144C175.671 104.271 175.582 104.537 175.582 104.942V112.2C175.582 113.087 175.772 113.707 176.152 114.062C176.532 114.391 177.115 114.556 177.9 114.556H180.902C181.612 114.556 182.232 114.505 182.764 114.404C183.296 114.303 183.752 114.113 184.132 113.834C184.563 113.53 184.943 113.137 185.272 112.656C185.602 112.175 185.944 111.579 186.298 110.87C186.4 110.718 186.501 110.604 186.602 110.528C186.704 110.427 186.818 110.389 186.944 110.414C187.096 110.414 187.198 110.477 187.248 110.604C187.324 110.705 187.362 110.845 187.362 111.022C187.362 111.301 187.299 111.719 187.172 112.276C187.046 112.833 186.881 113.416 186.678 114.024C186.501 114.632 186.336 115.151 186.184 115.582C186.108 115.759 186.02 115.899 185.918 116C185.817 116.127 185.69 116.19 185.538 116.19C184.626 116.19 183.676 116.177 182.688 116.152C181.7 116.127 180.687 116.101 179.648 116.076C178.61 116.051 177.571 116.025 176.532 116C175.494 115.975 174.468 115.962 173.454 115.962C172.922 115.962 172.416 115.975 171.934 116C171.453 116.051 170.959 116.089 170.452 116.114C169.971 116.165 169.414 116.19 168.78 116.19ZM203.64 116.57C201.816 116.57 200.055 116.266 198.358 115.658C196.686 115.05 195.204 114.189 193.912 113.074C192.62 111.959 191.594 110.617 190.834 109.046C190.099 107.475 189.732 105.727 189.732 103.802C189.732 102.003 190.112 100.319 190.872 98.748C191.632 97.152 192.683 95.7713 194.026 94.606C195.394 93.4153 196.977 92.4907 198.776 91.832C200.575 91.148 202.525 90.806 204.628 90.806C205.565 90.806 206.401 90.8567 207.136 90.958C207.871 91.034 208.58 91.148 209.264 91.3C209.948 91.452 210.683 91.6547 211.468 91.908C211.797 92.0093 212.038 92.1487 212.19 92.326C212.367 92.5033 212.469 92.7693 212.494 93.124C212.57 93.7827 212.633 94.4667 212.684 95.176C212.76 95.8853 212.811 96.6707 212.836 97.532C212.836 97.76 212.735 97.9247 212.532 98.026C212.355 98.1273 212.152 98.1527 211.924 98.102C211.696 98.026 211.544 97.8487 211.468 97.57C211.24 96.734 210.974 95.9867 210.67 95.328C210.366 94.6693 209.923 94.1247 209.34 93.694C208.757 93.238 208.01 92.8833 207.098 92.63C206.211 92.3767 205.211 92.25 204.096 92.25C202.677 92.25 201.373 92.5413 200.182 93.124C198.991 93.7067 197.978 94.5047 197.142 95.518C196.306 96.506 195.647 97.6333 195.166 98.9C194.71 100.167 194.482 101.484 194.482 102.852C194.482 104.448 194.697 105.981 195.128 107.45C195.584 108.919 196.23 110.224 197.066 111.364C197.927 112.504 198.966 113.416 200.182 114.1C201.398 114.759 202.766 115.088 204.286 115.088C206.11 115.088 207.617 114.683 208.808 113.872C209.999 113.036 210.999 111.845 211.81 110.3C211.987 109.945 212.253 109.768 212.608 109.768C212.963 109.768 213.14 109.971 213.14 110.376C213.14 110.629 213.089 110.984 212.988 111.44C212.912 111.871 212.798 112.352 212.646 112.884C212.494 113.391 212.342 113.859 212.19 114.29C212.038 114.619 211.899 114.847 211.772 114.974C211.645 115.101 211.405 115.227 211.05 115.354C210.087 115.759 208.947 116.063 207.63 116.266C206.338 116.469 205.008 116.57 203.64 116.57ZM223.208 116.152C222.93 116.152 222.689 116.114 222.486 116.038C222.284 115.987 222.182 115.873 222.182 115.696C222.182 115.519 222.284 115.379 222.486 115.278C222.689 115.151 222.968 115.05 223.322 114.974C224.285 114.797 225.007 114.505 225.488 114.1C225.97 113.695 226.21 113.049 226.21 112.162V97.114C226.21 95.9993 226.185 95.1633 226.134 94.606C226.084 94.0233 226.008 93.6307 225.906 93.428C225.805 93.2 225.666 93.0607 225.488 93.01C225.184 92.934 224.842 92.896 224.462 92.896C224.082 92.8707 223.639 92.858 223.132 92.858H221.65C220.992 92.858 220.333 93.01 219.674 93.314C219.041 93.5927 218.56 93.998 218.23 94.53C218.129 94.682 217.977 94.8973 217.774 95.176C217.597 95.4293 217.394 95.6573 217.166 95.86C216.938 96.0373 216.71 96.126 216.482 96.126C216.356 96.126 216.254 96.0753 216.178 95.974C216.128 95.8727 216.102 95.746 216.102 95.594C216.102 95.3153 216.178 95.0367 216.33 94.758C216.736 93.9473 217.027 93.238 217.204 92.63C217.382 92.022 217.521 91.3 217.622 90.464C217.673 90.0587 217.774 89.8053 217.926 89.704C218.078 89.6027 218.23 89.552 218.382 89.552C218.509 89.552 218.674 89.7167 218.876 90.046C219.104 90.35 219.282 90.6033 219.408 90.806C219.611 91.034 219.991 91.2113 220.548 91.338C221.106 91.4647 221.625 91.528 222.106 91.528L235.824 91.49C236.61 91.49 237.256 91.4393 237.762 91.338C238.294 91.2367 238.725 91.11 239.054 90.958C239.409 90.7807 239.688 90.5907 239.89 90.388C240.093 90.16 240.359 90.046 240.688 90.046C240.79 90.046 240.866 90.1347 240.916 90.312C240.967 90.464 240.992 90.6413 240.992 90.844C240.992 90.9453 240.98 91.0973 240.954 91.3C240.929 91.5027 240.904 91.6673 240.878 91.794C240.777 92.2753 240.676 92.6553 240.574 92.934C240.498 93.2127 240.435 93.4787 240.384 93.732C240.359 93.96 240.346 94.264 240.346 94.644V95.176C240.346 95.48 240.296 95.7713 240.194 96.05C240.093 96.3287 239.941 96.468 239.738 96.468C239.536 96.468 239.371 96.3413 239.244 96.088C239.118 95.8093 238.991 95.4167 238.864 94.91C238.712 94.2513 238.37 93.7447 237.838 93.39C237.332 93.0353 236.483 92.858 235.292 92.858H232.1C231.594 92.858 231.201 92.9467 230.922 93.124C230.644 93.276 230.454 93.656 230.352 94.264C230.276 94.8467 230.238 95.7967 230.238 97.114V112.162C230.238 113.023 230.479 113.657 230.96 114.062C231.467 114.467 232.202 114.771 233.164 114.974C233.519 115.05 233.785 115.139 233.962 115.24C234.165 115.341 234.266 115.493 234.266 115.696C234.266 115.848 234.178 115.962 234 116.038C233.823 116.114 233.582 116.152 233.278 116.152C232.645 116.152 232.062 116.127 231.53 116.076C230.998 116.051 230.479 116.025 229.972 116C229.466 115.975 228.934 115.962 228.376 115.962C227.768 115.962 227.198 115.975 226.666 116C226.134 116.025 225.59 116.051 225.032 116.076C224.475 116.127 223.867 116.152 223.208 116.152ZM242.653 116.152C242.375 116.152 242.134 116.114 241.931 116.038C241.754 115.987 241.665 115.873 241.665 115.696C241.665 115.367 242.033 115.126 242.767 114.974C243.73 114.797 244.439 114.518 244.895 114.138C245.351 113.758 245.579 113.137 245.579 112.276V95.1C245.579 94.2387 245.402 93.6307 245.047 93.276C244.693 92.896 244.034 92.6047 243.071 92.402C242.337 92.25 241.969 91.9967 241.969 91.642C241.969 91.4647 242.058 91.338 242.235 91.262C242.413 91.186 242.641 91.148 242.919 91.148C243.578 91.148 244.161 91.1607 244.667 91.186C245.199 91.2113 245.706 91.2367 246.187 91.262C246.669 91.2873 247.188 91.3 247.745 91.3C248.277 91.3 248.771 91.3 249.227 91.3C249.709 91.2747 250.19 91.2493 250.671 91.224C251.178 91.1987 251.748 91.186 252.381 91.186C252.685 91.186 252.926 91.224 253.103 91.3C253.281 91.3507 253.369 91.4647 253.369 91.642C253.369 91.8447 253.268 92.0093 253.065 92.136C252.888 92.2373 252.622 92.326 252.267 92.402C251.279 92.63 250.583 92.9213 250.177 93.276C249.797 93.6307 249.607 94.2387 249.607 95.1V112.276C249.607 113.112 249.848 113.72 250.329 114.1C250.811 114.48 251.52 114.771 252.457 114.974C252.837 115.05 253.116 115.139 253.293 115.24C253.471 115.341 253.559 115.493 253.559 115.696C253.559 115.848 253.471 115.962 253.293 116.038C253.141 116.114 252.913 116.152 252.609 116.152C251.976 116.152 251.393 116.127 250.861 116.076C250.329 116.051 249.81 116.025 249.303 116C248.822 115.975 248.303 115.962 247.745 115.962C247.137 115.962 246.567 115.975 246.035 116C245.529 116.025 244.997 116.051 244.439 116.076C243.882 116.127 243.287 116.152 242.653 116.152ZM266.694 116.532C266.441 116.532 266.251 116.405 266.124 116.152C265.998 115.823 265.833 115.392 265.63 114.86C265.453 114.328 265.288 113.872 265.136 113.492L258.03 95.176C257.777 94.492 257.435 93.922 257.004 93.466C256.574 92.9847 256.016 92.6553 255.332 92.478C254.978 92.3513 254.699 92.2373 254.496 92.136C254.294 92.0093 254.192 91.8447 254.192 91.642C254.192 91.4647 254.281 91.3507 254.458 91.3C254.661 91.224 254.902 91.186 255.18 91.186C255.636 91.186 256.13 91.1987 256.662 91.224C257.22 91.2493 257.802 91.2747 258.41 91.3C259.018 91.3 259.601 91.3 260.158 91.3C260.665 91.3 261.197 91.2873 261.754 91.262C262.337 91.2367 262.894 91.224 263.426 91.224C263.958 91.1987 264.402 91.186 264.756 91.186C265.035 91.186 265.276 91.224 265.478 91.3C265.706 91.376 265.82 91.49 265.82 91.642C265.82 91.8447 265.706 92.022 265.478 92.174C265.276 92.3007 264.997 92.3893 264.642 92.44C263.908 92.5413 263.325 92.706 262.894 92.934C262.464 93.162 262.248 93.4913 262.248 93.922C262.248 94.2513 262.286 94.5553 262.362 94.834C262.464 95.1127 262.54 95.3407 262.59 95.518L267.872 109.692C267.923 109.819 267.986 109.895 268.062 109.92C268.138 109.945 268.214 109.857 268.29 109.654L273.192 96.696C273.699 95.3787 273.75 94.378 273.344 93.694C272.964 92.9847 272.318 92.5793 271.406 92.478C271.052 92.4273 270.76 92.3387 270.532 92.212C270.304 92.06 270.19 91.8827 270.19 91.68C270.19 91.528 270.292 91.414 270.494 91.338C270.722 91.262 270.988 91.224 271.292 91.224C271.698 91.224 272.09 91.2367 272.47 91.262C272.85 91.262 273.243 91.2747 273.648 91.3C274.054 91.3 274.51 91.3 275.016 91.3C275.751 91.3 276.498 91.2747 277.258 91.224C278.044 91.1733 278.715 91.148 279.272 91.148C279.602 91.148 279.868 91.186 280.07 91.262C280.298 91.3127 280.412 91.4393 280.412 91.642C280.412 91.8193 280.298 91.9713 280.07 92.098C279.868 92.1993 279.589 92.3007 279.234 92.402C278.348 92.6047 277.6 93.0227 276.992 93.656C276.41 94.264 275.954 94.986 275.624 95.822L268.974 111.934C268.797 112.339 268.607 112.795 268.404 113.302C268.202 113.809 267.999 114.315 267.796 114.822C267.619 115.303 267.429 115.747 267.226 116.152C267.176 116.279 267.1 116.367 266.998 116.418C266.922 116.494 266.821 116.532 266.694 116.532ZM282.335 116.19C282.031 116.19 281.79 116.152 281.613 116.076C281.436 116 281.347 115.886 281.347 115.734C281.347 115.405 281.714 115.164 282.449 115.012C283.386 114.809 284.058 114.531 284.463 114.176C284.894 113.796 285.109 113.163 285.109 112.276V95.1C285.109 94.2387 284.932 93.618 284.577 93.238C284.222 92.858 283.576 92.5793 282.639 92.402C282.259 92.326 281.98 92.2247 281.803 92.098C281.626 91.9713 281.537 91.8193 281.537 91.642C281.537 91.49 281.626 91.376 281.803 91.3C281.98 91.1987 282.221 91.148 282.525 91.148C283.361 91.148 284.108 91.1607 284.767 91.186C285.451 91.2113 286.11 91.2367 286.743 91.262C287.402 91.2873 288.111 91.3 288.871 91.3C289.884 91.3 290.948 91.3 292.063 91.3C293.203 91.2747 294.229 91.2493 295.141 91.224C296.002 91.224 296.712 91.2113 297.269 91.186C297.852 91.1353 298.194 91.11 298.295 91.11C298.447 91.11 298.599 91.148 298.751 91.224C298.928 91.2747 299.03 91.3887 299.055 91.566C299.182 92.3513 299.308 93.124 299.435 93.884C299.587 94.6187 299.663 95.2647 299.663 95.822C299.663 96.0753 299.6 96.2527 299.473 96.354C299.372 96.43 299.258 96.468 299.131 96.468C299.004 96.468 298.903 96.43 298.827 96.354C298.751 96.278 298.675 96.164 298.599 96.012C298.422 95.5053 298.257 95.0493 298.105 94.644C297.953 94.2133 297.776 93.8967 297.573 93.694C297.244 93.3393 296.864 93.0733 296.433 92.896C296.002 92.7187 295.521 92.63 294.989 92.63H290.733C290.404 92.63 290.049 92.7567 289.669 93.01C289.314 93.238 289.137 93.5673 289.137 93.998V101.75C289.137 102.003 289.213 102.206 289.365 102.358C289.517 102.51 289.694 102.586 289.897 102.586H293.507C294.242 102.586 294.748 102.421 295.027 102.092C295.306 101.763 295.534 101.256 295.711 100.572C295.888 100.065 296.129 99.812 296.433 99.812C296.56 99.812 296.674 99.8753 296.775 100.002C296.876 100.103 296.927 100.268 296.927 100.496C296.927 100.648 296.914 100.901 296.889 101.256C296.864 101.611 296.838 101.978 296.813 102.358C296.788 102.738 296.775 103.042 296.775 103.27C296.775 103.549 296.775 103.891 296.775 104.296C296.8 104.676 296.826 105.056 296.851 105.436C296.876 105.816 296.889 106.095 296.889 106.272C296.914 106.5 296.889 106.69 296.813 106.842C296.762 106.969 296.674 107.032 296.547 107.032C296.142 107.032 295.838 106.665 295.635 105.93C295.483 105.271 295.268 104.777 294.989 104.448C294.736 104.119 294.356 103.954 293.849 103.954H290.315C289.91 103.954 289.606 104.017 289.403 104.144C289.226 104.271 289.137 104.537 289.137 104.942V112.2C289.137 113.087 289.327 113.707 289.707 114.062C290.087 114.391 290.67 114.556 291.455 114.556H294.457C295.166 114.556 295.787 114.505 296.319 114.404C296.851 114.303 297.307 114.113 297.687 113.834C298.118 113.53 298.498 113.137 298.827 112.656C299.156 112.175 299.498 111.579 299.853 110.87C299.954 110.718 300.056 110.604 300.157 110.528C300.258 110.427 300.372 110.389 300.499 110.414C300.651 110.414 300.752 110.477 300.803 110.604C300.879 110.705 300.917 110.845 300.917 111.022C300.917 111.301 300.854 111.719 300.727 112.276C300.6 112.833 300.436 113.416 300.233 114.024C300.056 114.632 299.891 115.151 299.739 115.582C299.663 115.759 299.574 115.899 299.473 116C299.372 116.127 299.245 116.19 299.093 116.19C298.181 116.19 297.231 116.177 296.243 116.152C295.255 116.127 294.242 116.101 293.203 116.076C292.164 116.051 291.126 116.025 290.087 116C289.048 115.975 288.022 115.962 287.009 115.962C286.477 115.962 285.97 115.975 285.489 116C285.008 116.051 284.514 116.089 284.007 116.114C283.526 116.165 282.968 116.19 282.335 116.19Z" fill="white"/>
<path d="M160.656 28.112C160.451 28.112 160.273 28.084 160.124 28.028C159.975 27.9907 159.9 27.9067 159.9 27.776C159.9 27.6453 159.975 27.5427 160.124 27.468C160.273 27.3747 160.479 27.3 160.74 27.244C161.449 27.1133 161.981 26.8987 162.336 26.6C162.691 26.3013 162.868 25.8253 162.868 25.172V14.084C162.868 13.2627 162.849 12.6467 162.812 12.236C162.775 11.8067 162.719 11.5173 162.644 11.368C162.569 11.2 162.467 11.0973 162.336 11.06C162.112 11.004 161.86 10.976 161.58 10.976C161.3 10.9573 160.973 10.948 160.6 10.948H159.508C159.023 10.948 158.537 11.06 158.052 11.284C157.585 11.4893 157.231 11.788 156.988 12.18C156.913 12.292 156.801 12.4507 156.652 12.656C156.521 12.8427 156.372 13.0107 156.204 13.16C156.036 13.2907 155.868 13.356 155.7 13.356C155.607 13.356 155.532 13.3187 155.476 13.244C155.439 13.1693 155.42 13.076 155.42 12.964C155.42 12.7587 155.476 12.5533 155.588 12.348C155.887 11.7507 156.101 11.228 156.232 10.78C156.363 10.332 156.465 9.8 156.54 9.184C156.577 8.88533 156.652 8.69867 156.764 8.624C156.876 8.54933 156.988 8.512 157.1 8.512C157.193 8.512 157.315 8.63333 157.464 8.876C157.632 9.1 157.763 9.28667 157.856 9.436C158.005 9.604 158.285 9.73467 158.696 9.828C159.107 9.92133 159.489 9.968 159.844 9.968L169.952 9.94C170.531 9.94 171.007 9.90267 171.38 9.828C171.772 9.75333 172.089 9.66 172.332 9.548C172.593 9.41733 172.799 9.27733 172.948 9.128C173.097 8.96 173.293 8.876 173.536 8.876C173.611 8.876 173.667 8.94133 173.704 9.072C173.741 9.184 173.76 9.31467 173.76 9.464C173.76 9.53867 173.751 9.65067 173.732 9.8C173.713 9.94933 173.695 10.0707 173.676 10.164C173.601 10.5187 173.527 10.7987 173.452 11.004C173.396 11.2093 173.349 11.4053 173.312 11.592C173.293 11.76 173.284 11.984 173.284 12.264V12.656C173.284 12.88 173.247 13.0947 173.172 13.3C173.097 13.5053 172.985 13.608 172.836 13.608C172.687 13.608 172.565 13.5147 172.472 13.328C172.379 13.1227 172.285 12.8333 172.192 12.46C172.08 11.9747 171.828 11.6013 171.436 11.34C171.063 11.0787 170.437 10.948 169.56 10.948H167.208C166.835 10.948 166.545 11.0133 166.34 11.144C166.135 11.256 165.995 11.536 165.92 11.984C165.864 12.4133 165.836 13.1133 165.836 14.084V25.172C165.836 25.8067 166.013 26.2733 166.368 26.572C166.741 26.8707 167.283 27.0947 167.992 27.244C168.253 27.3 168.449 27.3653 168.58 27.44C168.729 27.5147 168.804 27.6267 168.804 27.776C168.804 27.888 168.739 27.972 168.608 28.028C168.477 28.084 168.3 28.112 168.076 28.112C167.609 28.112 167.18 28.0933 166.788 28.056C166.396 28.0373 166.013 28.0187 165.64 28C165.267 27.9813 164.875 27.972 164.464 27.972C164.016 27.972 163.596 27.9813 163.204 28C162.812 28.0187 162.411 28.0373 162 28.056C161.589 28.0933 161.141 28.112 160.656 28.112ZM175.32 28.112C175.115 28.112 174.947 28.0747 174.816 28C174.685 27.944 174.62 27.86 174.62 27.748C174.62 27.524 174.881 27.356 175.404 27.244C176.095 27.1133 176.552 26.908 176.776 26.628C177 26.348 177.112 25.8907 177.112 25.256V12.572C177.112 11.9373 177.028 11.4893 176.86 11.228C176.692 10.9667 176.263 10.7613 175.572 10.612C175.031 10.5 174.76 10.3227 174.76 10.08C174.76 9.968 174.816 9.87467 174.928 9.8C175.059 9.72533 175.236 9.688 175.46 9.688C175.945 9.688 176.356 9.69733 176.692 9.716C177.028 9.73467 177.345 9.75333 177.644 9.772C177.961 9.79067 178.307 9.8 178.68 9.8C179.072 9.8 179.427 9.8 179.744 9.8C180.08 9.78133 180.425 9.76267 180.78 9.744C181.153 9.72533 181.573 9.716 182.04 9.716C182.525 9.716 182.768 9.83733 182.768 10.08C182.768 10.2293 182.693 10.3413 182.544 10.416C182.413 10.4907 182.217 10.556 181.956 10.612C181.247 10.78 180.752 11.0133 180.472 11.312C180.211 11.6107 180.08 12.0307 180.08 12.572V17.92C180.08 18.0507 180.117 18.1347 180.192 18.172C180.285 18.2093 180.379 18.228 180.472 18.228H189.824C189.992 18.228 190.076 18.1067 190.076 17.864V12.572C190.076 12.0493 189.945 11.6387 189.684 11.34C189.441 11.0227 188.956 10.78 188.228 10.612C187.948 10.556 187.743 10.4907 187.612 10.416C187.481 10.3413 187.416 10.2293 187.416 10.08C187.416 9.83733 187.649 9.716 188.116 9.716C188.583 9.716 189.012 9.72533 189.404 9.744C189.796 9.76267 190.169 9.78133 190.524 9.8C190.897 9.8 191.28 9.8 191.672 9.8C192.027 9.8 192.335 9.79067 192.596 9.772C192.876 9.75333 193.165 9.73467 193.464 9.716C193.781 9.69733 194.183 9.688 194.668 9.688C194.892 9.688 195.069 9.72533 195.2 9.8C195.331 9.87467 195.396 9.968 195.396 10.08C195.396 10.3227 195.125 10.5 194.584 10.612C193.893 10.7613 193.464 10.9853 193.296 11.284C193.128 11.564 193.044 11.984 193.044 12.544V25.228C193.044 25.8813 193.137 26.348 193.324 26.628C193.529 26.908 193.968 27.1133 194.64 27.244C195.163 27.356 195.424 27.524 195.424 27.748C195.424 27.86 195.349 27.944 195.2 28C195.069 28.0747 194.901 28.112 194.696 28.112C194.248 28.112 193.847 28.0933 193.492 28.056C193.156 28.0373 192.829 28.0187 192.512 28C192.195 27.9813 191.849 27.972 191.476 27.972C191.084 27.972 190.72 27.9813 190.384 28C190.067 28.0187 189.721 28.0373 189.348 28.056C188.975 28.0933 188.555 28.112 188.088 28.112C187.864 28.112 187.687 28.0747 187.556 28C187.444 27.944 187.388 27.86 187.388 27.748C187.388 27.5987 187.444 27.496 187.556 27.44C187.687 27.3653 187.892 27.3 188.172 27.244C188.807 27.1133 189.283 26.8987 189.6 26.6C189.917 26.3013 190.076 25.8627 190.076 25.284V19.88C190.076 19.768 190.067 19.6747 190.048 19.6C190.029 19.5067 189.964 19.46 189.852 19.46H180.304C180.155 19.46 180.08 19.572 180.08 19.796V25.088C180.08 25.648 180.267 26.1147 180.64 26.488C181.013 26.8613 181.527 27.1133 182.18 27.244C182.46 27.3 182.665 27.3653 182.796 27.44C182.927 27.496 182.992 27.5987 182.992 27.748C182.992 27.86 182.927 27.944 182.796 28C182.665 28.0747 182.488 28.112 182.264 28.112C181.797 28.112 181.368 28.0933 180.976 28.056C180.584 28.0373 180.201 28.0187 179.828 28C179.473 27.9813 179.091 27.972 178.68 27.972C178.307 27.972 177.952 27.9813 177.616 28C177.28 28.0187 176.925 28.0373 176.552 28.056C176.197 28.0933 175.787 28.112 175.32 28.112ZM197.934 28.14C197.71 28.14 197.533 28.112 197.402 28.056C197.271 28 197.206 27.916 197.206 27.804C197.206 27.5613 197.477 27.384 198.018 27.272C198.709 27.1227 199.203 26.9173 199.502 26.656C199.819 26.376 199.978 25.9093 199.978 25.256V12.6C199.978 11.9653 199.847 11.508 199.586 11.228C199.325 10.948 198.849 10.7427 198.158 10.612C197.878 10.556 197.673 10.4813 197.542 10.388C197.411 10.2947 197.346 10.1827 197.346 10.052C197.346 9.94 197.411 9.856 197.542 9.8C197.673 9.72533 197.85 9.688 198.074 9.688C198.69 9.688 199.241 9.69733 199.726 9.716C200.23 9.73467 200.715 9.75333 201.182 9.772C201.667 9.79067 202.19 9.8 202.75 9.8C203.497 9.8 204.281 9.8 205.102 9.8C205.942 9.78133 206.698 9.76267 207.37 9.744C208.005 9.744 208.527 9.73467 208.938 9.716C209.367 9.67867 209.619 9.66 209.694 9.66C209.806 9.66 209.918 9.688 210.03 9.744C210.161 9.78133 210.235 9.86533 210.254 9.996C210.347 10.5747 210.441 11.144 210.534 11.704C210.646 12.2453 210.702 12.7213 210.702 13.132C210.702 13.3187 210.655 13.4493 210.562 13.524C210.487 13.58 210.403 13.608 210.31 13.608C210.217 13.608 210.142 13.58 210.086 13.524C210.03 13.468 209.974 13.384 209.918 13.272C209.787 12.8987 209.666 12.5627 209.554 12.264C209.442 11.9467 209.311 11.7133 209.162 11.564C208.919 11.3027 208.639 11.1067 208.322 10.976C208.005 10.8453 207.65 10.78 207.258 10.78H204.122C203.879 10.78 203.618 10.8733 203.338 11.06C203.077 11.228 202.946 11.4707 202.946 11.788V17.5C202.946 17.6867 203.002 17.836 203.114 17.948C203.226 18.06 203.357 18.116 203.506 18.116H206.166C206.707 18.116 207.081 17.9947 207.286 17.752C207.491 17.5093 207.659 17.136 207.79 16.632C207.921 16.2587 208.098 16.072 208.322 16.072C208.415 16.072 208.499 16.1187 208.574 16.212C208.649 16.2867 208.686 16.408 208.686 16.576C208.686 16.688 208.677 16.8747 208.658 17.136C208.639 17.3973 208.621 17.668 208.602 17.948C208.583 18.228 208.574 18.452 208.574 18.62C208.574 18.8253 208.574 19.0773 208.574 19.376C208.593 19.656 208.611 19.936 208.63 20.216C208.649 20.496 208.658 20.7013 208.658 20.832C208.677 21 208.658 21.14 208.602 21.252C208.565 21.3453 208.499 21.392 208.406 21.392C208.107 21.392 207.883 21.1213 207.734 20.58C207.622 20.0947 207.463 19.7307 207.258 19.488C207.071 19.2453 206.791 19.124 206.418 19.124H203.814C203.515 19.124 203.291 19.1707 203.142 19.264C203.011 19.3573 202.946 19.5533 202.946 19.852V25.2C202.946 25.8533 203.086 26.3107 203.366 26.572C203.646 26.8147 204.075 26.936 204.654 26.936H206.866C207.389 26.936 207.846 26.8987 208.238 26.824C208.63 26.7493 208.966 26.6093 209.246 26.404C209.563 26.18 209.843 25.8907 210.086 25.536C210.329 25.1813 210.581 24.7427 210.842 24.22C210.917 24.108 210.991 24.024 211.066 23.968C211.141 23.8933 211.225 23.8653 211.318 23.884C211.43 23.884 211.505 23.9307 211.542 24.024C211.598 24.0987 211.626 24.2013 211.626 24.332C211.626 24.5373 211.579 24.8453 211.486 25.256C211.393 25.6667 211.271 26.096 211.122 26.544C210.991 26.992 210.87 27.3747 210.758 27.692C210.702 27.8227 210.637 27.9253 210.562 28C210.487 28.0933 210.394 28.14 210.282 28.14C209.61 28.14 208.91 28.1307 208.182 28.112C207.454 28.0933 206.707 28.0747 205.942 28.056C205.177 28.0373 204.411 28.0187 203.646 28C202.881 27.9813 202.125 27.972 201.378 27.972C200.986 27.972 200.613 27.9813 200.258 28C199.903 28.0373 199.539 28.0653 199.166 28.084C198.811 28.1213 198.401 28.14 197.934 28.14Z" fill="white"/>
</svg>
